<?xml version="1.0" encoding="utf-8" ?>
<!-- Generator: Adobe Illustrator 21.0.0, SVG Export Plug-In . SVG Version: 6.00 Build 0)  -->
<svg version="1.1" id="Layer_1" xmlns="http://www.w3.org/2000/svg" xmlns:xlink="http://www.w3.org/1999/xlink" x="0px" y="0px"
	 viewBox="0 0 906.3 169.9" style="enable-background:new 0 0 906.3 169.9;" xml:space="preserve" shape-rendering="geometricPrecision">
<style type="text/css">
	.st0{fill:#2E2630;}
	.st1{fill:#ACC435;}
</style>
	<path class="st0" d="M314.1,0c-5.5,0-10,4.5-10,10v100c0,5.5,4.5,10,10,10s10-4.5,10-10V10C324.1,4.5,319.6,0,314.1,0z"/>
	<path class="st1" d="M100,30c0-5.5-4.5-10-10-10H50C22.4,20,0,42.4,0,70s22.4,50,50,50c11.3,0,21.6-3.7,30-10c0,5.5,4.5,10,10,10
		s10-4.5,10-10V70c0-11.3-3.7-21.6-10-30C95.5,40,100,35.6,100,30z M50,100c-16.6,0-30-13.4-30-30s13.4-30,30-30s30,13.4,30,30
		S66.5,100,50,100z"/>
	<path class="st0" d="M434.1,30c0-5.5-4.5-10-10-10h-40c-27.6,0-50,22.4-50,50s22.4,50,50,50c11.3,0,21.6-3.7,30-10
		c0,5.5,4.5,10,10,10s10-4.5,10-10V70c0-11.3-3.7-21.6-10-30C429.6,40,434.1,35.5,434.1,30z M384.1,100c-16.6,0-30-13.4-30-30
		s13.4-30,30-30s30,13.4,30,30S400.6,100,384.1,100z"/>
	<path class="st1" d="M222,20.1h10v-10c0-5.5,4.5-10,10-10s10,4.5,10,10v100c0,5.5-4.5,10-10,10s-10-4.5-10-10v-70h-10
		c-5.5,0-10-4.5-10-10C212,24.5,216.4,20.1,222,20.1z"/>
	<path class="st1" d="M136,70L136,70c0-16.6,13.4-30,30-30s30,13.4,30,30l0,0l0,0v40c0,5.5,4.5,10,10,10s10-4.5,10-10V70l0,0
		c0-27.6-22.4-50-50-50s-50,22.4-50,50v40c0,5.5,4.5,10,10,10s10-4.5,10-10V70"/>
	<path class="st0" d="M620,70L620,70c0-16.6,13.4-30,30-30s30,13.4,30,30l0,0l0,0v40c0,5.5,4.5,10,10,10s10-4.5,10-10V70l0,0
		c0-27.6-22.4-50-50-50s-50,22.4-50,50v40c0,5.5,4.5,10,10,10s10-4.5,10-10V70"/>
	<path class="st1" d="M278.1,30c-5.5,0-10,4.5-10,10v70c0,5.5,4.5,10,10,10s10-4.5,10-10V40C288.1,34.5,283.6,30,278.1,30z"/>
	<path class="st1" d="M278,20L278,20c-5.5,0-10-4.5-10-10l0,0c0-5.5,4.5-10,10-10l0,0c5.5,0,10,4.5,10,10l0,0
		C288,15.6,283.5,20,278,20z"/>
	<path class="st0" d="M590,69.8c-0.1-27.5-22.5-49.8-50.1-49.7c-27.6,0-49.9,22.3-49.9,50c0,27.6,22.4,50,50,50
		c12.7,0,24.3-4.8,33.2-12.6c6.9-6.1,2.6-17.5-6.6-17.5l0,0c-2.4,0-4.8,0.9-6.6,2.5c-5.3,4.7-12.3,7.6-20,7.6
		c-13.1,0-24.2-8.3-28.3-20H580c0.4,0,0.9,0,1.3-0.1c4.8-0.6,8.5-4.7,8.7-9.7c0-0.1,0-0.2,0-0.3S590,69.9,590,69.8z M511.7,60
		c4.1-11.7,15.2-20,28.3-20s24.2,8.4,28.3,20H511.7z"/>
	<path class="st0" d="M760,20.2c-27.9,0-50.5,22.9-50,50.9c0.5,27.3,23,49.2,50.2,49.1c12.6-0.1,24.2-4.8,32.9-12.6
		c6.9-6.1,2.6-17.5-6.6-17.5l0,0c-2.4,0-4.8,0.9-6.6,2.5c-5.3,4.7-12.2,7.6-19.8,7.6c-16.5,0.1-30-13.3-30.2-29.8
		c-0.1-16.7,13.4-30.2,30-30.2c7.6,0,14.6,2.9,19.9,7.6c1.8,1.6,4.1,2.5,6.6,2.5l0,0c9.2,0,13.5-11.4,6.6-17.5
		C784.2,24.9,772.7,20.2,760,20.2z"/>
	<path class="st0" d="M896.4,20c-5.5,0-10,4.5-10,10v29.4V70l0,0l0,0c0,16.6-13.4,30-30,30s-30-13.4-30-30l0,0V30c0-5.5-4.5-10-10-10
		s-10,4.5-10,10v40l0,0c0,27.6,22.4,50,50,50c11.3,0,21.6-3.7,30-10v10.4l0,0c-0.2,16.4-13.6,29.6-30,29.6c-7.6,0-14.6-2.9-19.9-7.6
		c-1.8-1.6-4.1-2.5-6.6-2.5l0,0c-9.2,0-13.5,11.4-6.6,17.5c8.8,7.8,20.4,12.5,33,12.5c27.5,0,49.7-22.1,50-49.5l0,0V70V59.4V30
		C906.4,24.5,902,20,896.4,20z"/>
	<path class="st0" d="M480.1,20h-10V10c0-5.5-4.5-10-10-10s-10,4.5-10,10v100c0,5.5,4.5,10,10,10s10-4.5,10-10V40h10
		c5.5,0,10-4.5,10-10S485.6,20,480.1,20z"/>
</svg>
