G04*
G04 #@! TF.GenerationSoftware,Altium Limited,Altium Designer,19.1.8 (144)*
G04*
G04 Layer_Physical_Order=2*
G04 Layer_Color=16711680*
%FSLAX25Y25*%
%MOIN*%
G70*
G01*
G75*
%ADD12C,0.00787*%
%ADD13C,0.01181*%
%ADD35C,0.07480*%
%ADD44C,0.01968*%
%ADD45C,0.01575*%
%ADD54C,0.07874*%
%ADD62O,0.07874X0.03937*%
%ADD63C,0.06000*%
%ADD64C,0.07087*%
G04:AMPARAMS|DCode=65|XSize=70.87mil|YSize=70.87mil|CornerRadius=17.72mil|HoleSize=0mil|Usage=FLASHONLY|Rotation=180.000|XOffset=0mil|YOffset=0mil|HoleType=Round|Shape=RoundedRectangle|*
%AMROUNDEDRECTD65*
21,1,0.07087,0.03543,0,0,180.0*
21,1,0.03543,0.07087,0,0,180.0*
1,1,0.03543,-0.01772,0.01772*
1,1,0.03543,0.01772,0.01772*
1,1,0.03543,0.01772,-0.01772*
1,1,0.03543,-0.01772,-0.01772*
%
%ADD65ROUNDEDRECTD65*%
G04:AMPARAMS|DCode=66|XSize=70.87mil|YSize=70.87mil|CornerRadius=17.72mil|HoleSize=0mil|Usage=FLASHONLY|Rotation=270.000|XOffset=0mil|YOffset=0mil|HoleType=Round|Shape=RoundedRectangle|*
%AMROUNDEDRECTD66*
21,1,0.07087,0.03543,0,0,270.0*
21,1,0.03543,0.07087,0,0,270.0*
1,1,0.03543,-0.01772,-0.01772*
1,1,0.03543,-0.01772,0.01772*
1,1,0.03543,0.01772,0.01772*
1,1,0.03543,0.01772,-0.01772*
%
%ADD66ROUNDEDRECTD66*%
%ADD67C,0.02559*%
%ADD68C,0.16535*%
%ADD69C,0.28347*%
%ADD70C,0.09055*%
%ADD71C,0.02362*%
G36*
X140374Y195507D02*
X141982Y194841D01*
X143430Y193874D01*
X144661Y192642D01*
X145628Y191195D01*
X146295Y189586D01*
X146634Y187878D01*
X146634Y187008D01*
X146634Y68898D01*
Y68027D01*
X146295Y66319D01*
X145628Y64711D01*
X144661Y63263D01*
X143430Y62032D01*
X141982Y61065D01*
X140374Y60398D01*
X138666Y60059D01*
X137795Y60058D01*
X137771Y60054D01*
X137746Y60057D01*
X136781Y60010D01*
X136709Y59992D01*
X136635D01*
X134742Y59615D01*
X134651Y59578D01*
X134554Y59558D01*
X132772Y58820D01*
X132689Y58765D01*
X132598Y58727D01*
X130994Y57655D01*
X130924Y57585D01*
X130842Y57530D01*
X129477Y56166D01*
X129422Y56084D01*
X129352Y56014D01*
X128280Y54410D01*
X128243Y54318D01*
X128188Y54236D01*
X127449Y52454D01*
X127430Y52357D01*
X127392Y52265D01*
X127016Y50373D01*
Y50299D01*
X126998Y50226D01*
X126951Y49262D01*
X126954Y49237D01*
X126949Y49213D01*
X126949Y-49213D01*
X126954Y-49237D01*
X126950Y-49262D01*
X126998Y-50226D01*
X127016Y-50299D01*
Y-50373D01*
X127392Y-52266D01*
X127430Y-52357D01*
X127449Y-52454D01*
X128188Y-54236D01*
X128243Y-54318D01*
X128280Y-54410D01*
X129352Y-56014D01*
X129422Y-56084D01*
X129477Y-56166D01*
X130842Y-57530D01*
X130924Y-57586D01*
X130994Y-57655D01*
X132598Y-58727D01*
X132689Y-58765D01*
X132772Y-58820D01*
X134554Y-59558D01*
X134651Y-59578D01*
X134742Y-59615D01*
X136635Y-59992D01*
X136709D01*
X136781Y-60010D01*
X137746Y-60057D01*
X137771Y-60054D01*
X137795Y-60059D01*
X138666D01*
X140374Y-60398D01*
X141982Y-61065D01*
X143430Y-62032D01*
X144661Y-63263D01*
X145628Y-64711D01*
X146295Y-66320D01*
X146634Y-68027D01*
X146634Y-68897D01*
X146634Y-68897D01*
X146634Y-68898D01*
X146634Y-187008D01*
Y-187879D01*
X146295Y-189586D01*
X145628Y-191195D01*
X144661Y-192643D01*
X143430Y-193874D01*
X141982Y-194841D01*
X140374Y-195507D01*
X138666Y-195847D01*
X137795Y-195847D01*
X-137795D01*
X-138666Y-195847D01*
X-140374Y-195507D01*
X-141982Y-194841D01*
X-143430Y-193874D01*
X-144661Y-192643D01*
X-145628Y-191195D01*
X-146295Y-189586D01*
X-146634Y-187879D01*
X-146634Y-187008D01*
X-146634Y187008D01*
Y187878D01*
X-146295Y189586D01*
X-145628Y191195D01*
X-144661Y192642D01*
X-143430Y193874D01*
X-141982Y194841D01*
X-140374Y195507D01*
X-138666Y195847D01*
X138666D01*
X140374Y195507D01*
D02*
G37*
%LPC*%
G36*
X85827Y149227D02*
Y145551D01*
X89502D01*
X89450Y145946D01*
X88994Y147047D01*
X88269Y147993D01*
X87323Y148719D01*
X86221Y149175D01*
X85827Y149227D01*
D02*
G37*
G36*
X84252Y149227D02*
X83857Y149175D01*
X82756Y148719D01*
X81810Y147993D01*
X81085Y147047D01*
X80628Y145946D01*
X80576Y145551D01*
X84252D01*
Y149227D01*
D02*
G37*
G36*
X-83465Y149117D02*
X-87008D01*
X-87676Y149029D01*
X-88298Y148771D01*
X-88833Y148361D01*
X-89243Y147826D01*
X-89501Y147204D01*
X-89589Y146535D01*
Y142992D01*
X-89501Y142324D01*
X-89243Y141702D01*
X-88833Y141167D01*
X-88298Y140757D01*
X-87676Y140499D01*
X-87008Y140411D01*
X-83465D01*
X-82797Y140499D01*
X-82174Y140757D01*
X-81639Y141167D01*
X-81229Y141702D01*
X-80971Y142324D01*
X-80883Y142992D01*
Y146535D01*
X-80971Y147204D01*
X-81229Y147826D01*
X-81639Y148361D01*
X-82174Y148771D01*
X-82797Y149029D01*
X-83465Y149117D01*
D02*
G37*
G36*
X89502Y143976D02*
X85827D01*
Y140301D01*
X86221Y140353D01*
X87323Y140809D01*
X88269Y141535D01*
X88994Y142481D01*
X89450Y143582D01*
X89502Y143976D01*
D02*
G37*
G36*
X84252D02*
X80576D01*
X80628Y143582D01*
X81085Y142481D01*
X81810Y141535D01*
X82756Y140809D01*
X83857Y140353D01*
X84252Y140301D01*
Y143976D01*
D02*
G37*
G36*
X86811Y139315D02*
X85827D01*
Y135551D01*
X89591D01*
Y136535D01*
X89496Y137255D01*
X89218Y137925D01*
X88776Y138501D01*
X88201Y138943D01*
X87530Y139220D01*
X86811Y139315D01*
D02*
G37*
G36*
X84252D02*
X83268D01*
X82548Y139220D01*
X81878Y138943D01*
X81302Y138501D01*
X80861Y137925D01*
X80583Y137255D01*
X80488Y136535D01*
Y135551D01*
X84252D01*
Y139315D01*
D02*
G37*
G36*
X89591Y133976D02*
X85827D01*
Y130212D01*
X86811D01*
X87530Y130307D01*
X88201Y130585D01*
X88776Y131027D01*
X89218Y131602D01*
X89496Y132273D01*
X89591Y132992D01*
Y133976D01*
D02*
G37*
G36*
X84252D02*
X80488D01*
Y132992D01*
X80583Y132273D01*
X80861Y131602D01*
X81302Y131027D01*
X81878Y130585D01*
X82548Y130307D01*
X83268Y130212D01*
X84252D01*
Y133976D01*
D02*
G37*
G36*
X-85236Y139132D02*
X-86367Y138983D01*
X-87420Y138547D01*
X-88325Y137853D01*
X-89019Y136948D01*
X-89455Y135894D01*
X-89604Y134764D01*
X-89455Y133633D01*
X-89019Y132580D01*
X-88325Y131675D01*
X-87420Y130981D01*
X-86846Y130743D01*
Y91982D01*
X-86894Y91910D01*
X-87046Y91142D01*
X-86944Y90627D01*
Y26142D01*
X-86951D01*
X-86784Y22316D01*
X-86284Y18519D01*
X-85455Y14780D01*
X-84304Y11127D01*
X-82838Y7589D01*
X-81070Y4192D01*
X-79012Y962D01*
X-76680Y-2077D01*
X-74093Y-4900D01*
X-71269Y-7488D01*
X-68231Y-9819D01*
X-65001Y-11877D01*
X-61604Y-13645D01*
X-58066Y-15111D01*
X-54413Y-16263D01*
X-50674Y-17092D01*
X-46877Y-17592D01*
X-43051Y-17759D01*
Y-17751D01*
X258D01*
X371Y-17729D01*
X2634Y-17907D01*
X4952Y-18463D01*
X5623Y-18741D01*
X5523Y-19241D01*
X3228D01*
X2560Y-19329D01*
X1938Y-19587D01*
X1403Y-19997D01*
X993Y-20532D01*
X735Y-21154D01*
X647Y-21822D01*
Y-25366D01*
X735Y-26034D01*
X993Y-26656D01*
X1403Y-27191D01*
X1938Y-27601D01*
X2560Y-27859D01*
X3228Y-27947D01*
X6772D01*
X7440Y-27859D01*
X8062Y-27601D01*
X8597Y-27191D01*
X9007Y-26656D01*
X9265Y-26034D01*
X9353Y-25366D01*
Y-21822D01*
X9293Y-21369D01*
X9764Y-21114D01*
X11000Y-22170D01*
X12548Y-23982D01*
X13794Y-26015D01*
X14706Y-28217D01*
X15262Y-30535D01*
X15441Y-32798D01*
X15418Y-32912D01*
Y-67074D01*
X15370Y-67145D01*
X15217Y-67913D01*
X15370Y-68682D01*
X15418Y-68753D01*
Y-70125D01*
X15370Y-70196D01*
X15217Y-70965D01*
X15370Y-71733D01*
X15418Y-71804D01*
Y-105648D01*
X15430Y-105710D01*
X15306Y-107287D01*
X14922Y-108885D01*
X14293Y-110404D01*
X13434Y-111806D01*
X12367Y-113056D01*
X11117Y-114123D01*
X9715Y-114982D01*
X8196Y-115611D01*
X6598Y-115995D01*
X5020Y-116119D01*
X4959Y-116107D01*
X-10737D01*
Y-116106D01*
X-12924Y-116249D01*
X-15074Y-116677D01*
X-17150Y-117382D01*
X-19117Y-118351D01*
X-20939Y-119569D01*
X-22588Y-121015D01*
X-24033Y-122663D01*
X-25251Y-124486D01*
X-26221Y-126452D01*
X-26925Y-128528D01*
X-27353Y-130678D01*
X-27496Y-132866D01*
X-27496D01*
X-27519Y-133356D01*
X-27629Y-134469D01*
X-28097Y-136011D01*
X-28856Y-137431D01*
X-29826Y-138613D01*
X-29895Y-138660D01*
X-63154Y-171919D01*
X-63199Y-171986D01*
X-64370Y-172946D01*
X-65427Y-173512D01*
X-65809Y-173014D01*
X-66714Y-172319D01*
X-67767Y-171883D01*
X-68898Y-171734D01*
X-70028Y-171883D01*
X-71082Y-172319D01*
X-71986Y-173014D01*
X-72680Y-173918D01*
X-73117Y-174972D01*
X-73266Y-176102D01*
X-73117Y-177233D01*
X-72680Y-178286D01*
X-71986Y-179191D01*
X-71082Y-179885D01*
X-70028Y-180322D01*
X-68898Y-180470D01*
X-67767Y-180322D01*
X-66714Y-179885D01*
X-65809Y-179191D01*
X-65115Y-178286D01*
X-64678Y-177233D01*
X-64659Y-177083D01*
X-63568Y-176631D01*
X-61997Y-175668D01*
X-60599Y-174475D01*
X-60600Y-174474D01*
X-60600Y-174473D01*
X-27341Y-141214D01*
X-27339Y-141215D01*
X-26136Y-139806D01*
X-25168Y-138226D01*
X-24459Y-136515D01*
X-24026Y-134713D01*
X-23881Y-132866D01*
X-23881D01*
X-23869Y-132371D01*
X-23746Y-130805D01*
X-23263Y-128796D01*
X-22472Y-126886D01*
X-21392Y-125124D01*
X-20050Y-123552D01*
X-18478Y-122210D01*
X-16716Y-121130D01*
X-14807Y-120339D01*
X-12797Y-119857D01*
X-10828Y-119702D01*
X-10737Y-119720D01*
X4959D01*
Y-119728D01*
X7162Y-119555D01*
X9310Y-119039D01*
X11351Y-118194D01*
X13235Y-117039D01*
X14916Y-115604D01*
X16350Y-113924D01*
X17505Y-112040D01*
X18350Y-109999D01*
X18866Y-107851D01*
X19039Y-105648D01*
X19031D01*
Y-71804D01*
X19079Y-71733D01*
X19231Y-70965D01*
X19079Y-70196D01*
X19031Y-70125D01*
Y-68753D01*
X19079Y-68682D01*
X19231Y-67913D01*
X19079Y-67145D01*
X19031Y-67074D01*
Y-32912D01*
X19036D01*
X18876Y-30461D01*
X18396Y-28052D01*
X17607Y-25726D01*
X16520Y-23523D01*
X15156Y-21480D01*
X13536Y-19633D01*
X11689Y-18014D01*
X9647Y-16649D01*
X7444Y-15563D01*
X5118Y-14773D01*
X2709Y-14294D01*
X258Y-14133D01*
Y-14139D01*
X-43051D01*
X-43185Y-14165D01*
X-47002Y-13978D01*
X-50916Y-13397D01*
X-54753Y-12436D01*
X-58478Y-11103D01*
X-62055Y-9412D01*
X-65448Y-7378D01*
X-68626Y-5021D01*
X-71557Y-2364D01*
X-74214Y567D01*
X-76571Y3745D01*
X-78605Y7138D01*
X-80296Y10714D01*
X-81629Y14439D01*
X-82590Y18277D01*
X-83171Y22190D01*
X-83358Y26008D01*
X-83331Y26142D01*
Y89335D01*
X86507D01*
Y89334D01*
X88355Y89479D01*
X90156Y89912D01*
X91868Y90621D01*
X93448Y91589D01*
X94857Y92792D01*
X94856Y92793D01*
X95270Y93208D01*
X95355Y93225D01*
X96006Y93660D01*
X96441Y94311D01*
X96594Y95079D01*
X96441Y95847D01*
X96006Y96498D01*
X95355Y96933D01*
X94587Y97086D01*
X93818Y96933D01*
X93167Y96498D01*
X92732Y95847D01*
X92716Y95762D01*
X92301Y95348D01*
X92255Y95279D01*
X91073Y94309D01*
X89652Y93549D01*
X88111Y93082D01*
X86589Y92932D01*
X86507Y92948D01*
X-83233D01*
Y130906D01*
X-83052Y130981D01*
X-82148Y131675D01*
X-81453Y132580D01*
X-81017Y133633D01*
X-80868Y134764D01*
X-81017Y135894D01*
X-81453Y136948D01*
X-82148Y137853D01*
X-83052Y138547D01*
X-84106Y138983D01*
X-85236Y139132D01*
D02*
G37*
G36*
X6772Y83093D02*
X3228D01*
X2560Y83005D01*
X1938Y82747D01*
X1403Y82337D01*
X993Y81802D01*
X735Y81180D01*
X647Y80512D01*
Y76968D01*
X735Y76301D01*
X993Y75678D01*
X1403Y75143D01*
X1938Y74733D01*
X2560Y74475D01*
X3228Y74387D01*
X6772D01*
X7440Y74475D01*
X8062Y74733D01*
X8597Y75143D01*
X9007Y75678D01*
X9265Y76301D01*
X9353Y76968D01*
Y80512D01*
X9265Y81180D01*
X9007Y81802D01*
X8597Y82337D01*
X8062Y82747D01*
X7440Y83005D01*
X6772Y83093D01*
D02*
G37*
G36*
X-5000Y83108D02*
X-6131Y82959D01*
X-7184Y82523D01*
X-8089Y81829D01*
X-8783Y80924D01*
X-9219Y79871D01*
X-9368Y78740D01*
X-9219Y77610D01*
X-8783Y76556D01*
X-8089Y75652D01*
X-7184Y74957D01*
X-6131Y74521D01*
X-5000Y74372D01*
X-3870Y74521D01*
X-2816Y74957D01*
X-1911Y75652D01*
X-1217Y76556D01*
X-781Y77610D01*
X-632Y78740D01*
X-781Y79871D01*
X-1217Y80924D01*
X-1911Y81829D01*
X-2816Y82523D01*
X-3870Y82959D01*
X-5000Y83108D01*
D02*
G37*
G36*
X6772Y57277D02*
X3228D01*
X2560Y57189D01*
X1938Y56932D01*
X1403Y56521D01*
X993Y55987D01*
X735Y55364D01*
X647Y54696D01*
Y51153D01*
X735Y50485D01*
X993Y49862D01*
X1403Y49328D01*
X1938Y48918D01*
X2560Y48660D01*
X3228Y48572D01*
X6772D01*
X7440Y48660D01*
X8062Y48918D01*
X8597Y49328D01*
X9007Y49862D01*
X9265Y50485D01*
X9353Y51153D01*
Y54696D01*
X9265Y55364D01*
X9007Y55987D01*
X8597Y56521D01*
X8062Y56932D01*
X7440Y57189D01*
X6772Y57277D01*
D02*
G37*
G36*
X-5000Y57293D02*
X-6131Y57144D01*
X-7184Y56707D01*
X-8089Y56013D01*
X-8783Y55109D01*
X-9219Y54055D01*
X-9368Y52925D01*
X-9219Y51794D01*
X-8783Y50740D01*
X-8089Y49836D01*
X-7184Y49142D01*
X-6131Y48705D01*
X-5000Y48557D01*
X-3870Y48705D01*
X-2816Y49142D01*
X-1911Y49836D01*
X-1217Y50740D01*
X-781Y51794D01*
X-632Y52925D01*
X-781Y54055D01*
X-1217Y55109D01*
X-1911Y56013D01*
X-2816Y56707D01*
X-3870Y57144D01*
X-5000Y57293D01*
D02*
G37*
G36*
X-135433Y44731D02*
X-136821Y44548D01*
X-138113Y44013D01*
X-139224Y43161D01*
X-140076Y42051D01*
X-140611Y40758D01*
X-140794Y39370D01*
X-140611Y37983D01*
X-140076Y36690D01*
X-139224Y35580D01*
X-138113Y34728D01*
X-136821Y34192D01*
X-135433Y34009D01*
X-134046Y34192D01*
X-132753Y34728D01*
X-131642Y35580D01*
X-130790Y36690D01*
X-130255Y37983D01*
X-130072Y39370D01*
X-130255Y40758D01*
X-130790Y42051D01*
X-131642Y43161D01*
X-132753Y44013D01*
X-134046Y44548D01*
X-135433Y44731D01*
D02*
G37*
G36*
X-96063Y40198D02*
X-97296Y40036D01*
X-98446Y39560D01*
X-99432Y38803D01*
X-100190Y37816D01*
X-100666Y36667D01*
X-100828Y35433D01*
X-100666Y34200D01*
X-100190Y33051D01*
X-99432Y32064D01*
X-98446Y31306D01*
X-97296Y30830D01*
X-96063Y30668D01*
X-94830Y30830D01*
X-93680Y31306D01*
X-92694Y32064D01*
X-91936Y33051D01*
X-91460Y34200D01*
X-91298Y35433D01*
X-91460Y36667D01*
X-91936Y37816D01*
X-92694Y38803D01*
X-93680Y39560D01*
X-94830Y40036D01*
X-96063Y40198D01*
D02*
G37*
G36*
X-5000Y31829D02*
X-6131Y31680D01*
X-7184Y31244D01*
X-8089Y30549D01*
X-8783Y29645D01*
X-9219Y28591D01*
X-9368Y27461D01*
X-9219Y26330D01*
X-8783Y25277D01*
X-8089Y24372D01*
X-7184Y23678D01*
X-6131Y23241D01*
X-5000Y23093D01*
X-3870Y23241D01*
X-2816Y23678D01*
X-1911Y24372D01*
X-1217Y25277D01*
X-781Y26330D01*
X-632Y27461D01*
X-781Y28591D01*
X-1217Y29645D01*
X-1911Y30549D01*
X-2816Y31244D01*
X-3870Y31680D01*
X-5000Y31829D01*
D02*
G37*
G36*
X90748Y19625D02*
X89980Y19472D01*
X89329Y19037D01*
X89185Y18822D01*
X25008D01*
Y18834D01*
X23254Y18696D01*
X21542Y18285D01*
X19916Y17611D01*
X18416Y16692D01*
X17077Y15549D01*
X17077Y15549D01*
X16732Y15187D01*
X7644Y6099D01*
X7558Y6135D01*
X6890Y6223D01*
X3347D01*
X2678Y6135D01*
X2056Y5877D01*
X1521Y5467D01*
X1111Y4932D01*
X853Y4310D01*
X765Y3642D01*
Y99D01*
X853Y-570D01*
X1111Y-1192D01*
X1521Y-1727D01*
X2056Y-2137D01*
X2678Y-2395D01*
X3347Y-2483D01*
X6890D01*
X7558Y-2395D01*
X8180Y-2137D01*
X8715Y-1727D01*
X9125Y-1192D01*
X9383Y-570D01*
X9471Y99D01*
Y3642D01*
X9383Y4310D01*
X9347Y4396D01*
X18789Y13838D01*
X18789Y13838D01*
X19156Y14159D01*
X20113Y14944D01*
X21636Y15759D01*
X23289Y16260D01*
X24956Y16424D01*
X25008Y16414D01*
X89185D01*
X89329Y16199D01*
X89980Y15764D01*
X90748Y15611D01*
X91516Y15764D01*
X92167Y16199D01*
X92602Y16850D01*
X92755Y17618D01*
X92602Y18386D01*
X92167Y19037D01*
X91516Y19472D01*
X90748Y19625D01*
D02*
G37*
G36*
X6772Y31813D02*
X3228D01*
X2560Y31725D01*
X1938Y31468D01*
X1403Y31057D01*
X993Y30523D01*
X735Y29900D01*
X647Y29232D01*
Y25689D01*
X735Y25021D01*
X993Y24398D01*
X1403Y23864D01*
X1938Y23454D01*
X2560Y23196D01*
X3228Y23108D01*
X6772D01*
X7440Y23196D01*
X8062Y23454D01*
X8597Y23864D01*
X9007Y24398D01*
X9265Y25021D01*
X9353Y25689D01*
Y28028D01*
X82570D01*
X82623Y28038D01*
X84289Y27874D01*
X85942Y27373D01*
X87466Y26559D01*
X88760Y25496D01*
X88790Y25452D01*
X96469Y17773D01*
X96418Y17520D01*
X96571Y16752D01*
X97006Y16101D01*
X97657Y15665D01*
X98425Y15513D01*
X99193Y15665D01*
X99844Y16101D01*
X100279Y16752D01*
X100432Y17520D01*
X100279Y18288D01*
X99844Y18939D01*
X99193Y19374D01*
X98425Y19527D01*
X98172Y19476D01*
X90493Y27155D01*
X90501Y27163D01*
X89163Y28306D01*
X87662Y29226D01*
X86036Y29899D01*
X84325Y30310D01*
X82570Y30448D01*
Y30437D01*
X9277D01*
Y30448D01*
X9047Y30426D01*
X9007Y30523D01*
X8597Y31057D01*
X8062Y31468D01*
X7440Y31725D01*
X6772Y31813D01*
D02*
G37*
G36*
X-96063Y24450D02*
X-97296Y24288D01*
X-98446Y23812D01*
X-99432Y23055D01*
X-100190Y22068D01*
X-100666Y20919D01*
X-100828Y19685D01*
X-100666Y18452D01*
X-100190Y17303D01*
X-99432Y16316D01*
X-98446Y15558D01*
X-97296Y15082D01*
X-96063Y14920D01*
X-94830Y15082D01*
X-93680Y15558D01*
X-92694Y16316D01*
X-91936Y17303D01*
X-91460Y18452D01*
X-91298Y19685D01*
X-91460Y20919D01*
X-91936Y22068D01*
X-92694Y23055D01*
X-93680Y23812D01*
X-94830Y24288D01*
X-96063Y24450D01*
D02*
G37*
G36*
X-95275Y8797D02*
Y4725D01*
X-91203D01*
X-91268Y5222D01*
X-91764Y6419D01*
X-92553Y7447D01*
X-93581Y8236D01*
X-94778Y8732D01*
X-95275Y8797D01*
D02*
G37*
G36*
X-96850Y8797D02*
X-97348Y8732D01*
X-98545Y8236D01*
X-99573Y7447D01*
X-100362Y6419D01*
X-100858Y5222D01*
X-100923Y4725D01*
X-96850D01*
Y8797D01*
D02*
G37*
G36*
X-91203Y3150D02*
X-95275D01*
Y-923D01*
X-94778Y-857D01*
X-93581Y-362D01*
X-92553Y427D01*
X-91764Y1455D01*
X-91268Y2653D01*
X-91203Y3150D01*
D02*
G37*
G36*
X-96850D02*
X-100923D01*
X-100858Y2653D01*
X-100362Y1455D01*
X-99573Y427D01*
X-98545Y-362D01*
X-97348Y-857D01*
X-96850Y-923D01*
Y3150D01*
D02*
G37*
G36*
X-4882Y6238D02*
X-6012Y6089D01*
X-7066Y5653D01*
X-7971Y4959D01*
X-8665Y4054D01*
X-9101Y3001D01*
X-9250Y1870D01*
X-9101Y740D01*
X-8665Y-314D01*
X-7971Y-1218D01*
X-7066Y-1913D01*
X-6012Y-2349D01*
X-4882Y-2498D01*
X-3751Y-2349D01*
X-2698Y-1913D01*
X-1793Y-1218D01*
X-1099Y-314D01*
X-663Y740D01*
X-514Y1870D01*
X-663Y3001D01*
X-1099Y4054D01*
X-1793Y4959D01*
X-2698Y5653D01*
X-3751Y6089D01*
X-4882Y6238D01*
D02*
G37*
G36*
X-135433Y5361D02*
X-136821Y5178D01*
X-138113Y4643D01*
X-139224Y3791D01*
X-140076Y2681D01*
X-140611Y1388D01*
X-140794Y0D01*
X-140611Y-1387D01*
X-140076Y-2680D01*
X-139224Y-3791D01*
X-138113Y-4642D01*
X-136821Y-5178D01*
X-135433Y-5361D01*
X-134046Y-5178D01*
X-132753Y-4642D01*
X-131642Y-3791D01*
X-130790Y-2680D01*
X-130255Y-1387D01*
X-130072Y0D01*
X-130255Y1388D01*
X-130790Y2681D01*
X-131642Y3791D01*
X-132753Y4643D01*
X-134046Y5178D01*
X-135433Y5361D01*
D02*
G37*
G36*
X95768Y-15710D02*
X95000Y-15862D01*
X94349Y-16297D01*
X93913Y-16949D01*
X93761Y-17717D01*
X93913Y-18485D01*
X94349Y-19136D01*
X95000Y-19571D01*
X95768Y-19724D01*
X96536Y-19571D01*
X97187Y-19136D01*
X97622Y-18485D01*
X97775Y-17717D01*
X97622Y-16949D01*
X97187Y-16297D01*
X96536Y-15862D01*
X95768Y-15710D01*
D02*
G37*
G36*
X-5000Y-19226D02*
X-6131Y-19375D01*
X-7184Y-19811D01*
X-8089Y-20505D01*
X-8783Y-21410D01*
X-9219Y-22463D01*
X-9368Y-23594D01*
X-9219Y-24724D01*
X-8783Y-25778D01*
X-8089Y-26683D01*
X-7184Y-27377D01*
X-6131Y-27813D01*
X-5000Y-27962D01*
X-3869Y-27813D01*
X-2816Y-27377D01*
X-1911Y-26683D01*
X-1217Y-25778D01*
X-781Y-24724D01*
X-632Y-23594D01*
X-781Y-22463D01*
X-1217Y-21410D01*
X-1911Y-20505D01*
X-2816Y-19811D01*
X-3869Y-19375D01*
X-5000Y-19226D01*
D02*
G37*
G36*
X-135433Y-24167D02*
X-136821Y-24349D01*
X-138113Y-24885D01*
X-139224Y-25737D01*
X-140076Y-26847D01*
X-140611Y-28140D01*
X-140794Y-29527D01*
X-140611Y-30915D01*
X-140076Y-32208D01*
X-139224Y-33318D01*
X-138113Y-34170D01*
X-136821Y-34705D01*
X-135433Y-34888D01*
X-134046Y-34705D01*
X-132753Y-34170D01*
X-131642Y-33318D01*
X-130790Y-32208D01*
X-130255Y-30915D01*
X-130072Y-29527D01*
X-130255Y-28140D01*
X-130790Y-26847D01*
X-131642Y-25737D01*
X-132753Y-24885D01*
X-134046Y-24349D01*
X-135433Y-24167D01*
D02*
G37*
G36*
X-96063Y-28699D02*
X-97296Y-28862D01*
X-98446Y-29338D01*
X-99432Y-30095D01*
X-100190Y-31082D01*
X-100666Y-32231D01*
X-100828Y-33464D01*
X-100666Y-34698D01*
X-100190Y-35847D01*
X-99432Y-36834D01*
X-98446Y-37591D01*
X-97296Y-38067D01*
X-96063Y-38230D01*
X-94830Y-38067D01*
X-93680Y-37591D01*
X-92694Y-36834D01*
X-91936Y-35847D01*
X-91460Y-34698D01*
X-91298Y-33464D01*
X-91460Y-32231D01*
X-91936Y-31082D01*
X-92694Y-30095D01*
X-93680Y-29338D01*
X-94830Y-28862D01*
X-96063Y-28699D01*
D02*
G37*
G36*
X6870Y-44972D02*
X3327D01*
X2659Y-45060D01*
X2036Y-45318D01*
X1502Y-45728D01*
X1091Y-46263D01*
X834Y-46885D01*
X746Y-47554D01*
Y-51097D01*
X834Y-51765D01*
X1091Y-52387D01*
X1502Y-52922D01*
X2036Y-53332D01*
X2659Y-53590D01*
X3327Y-53678D01*
X6870D01*
X7538Y-53590D01*
X8161Y-53332D01*
X8695Y-52922D01*
X9105Y-52387D01*
X9363Y-51765D01*
X9451Y-51097D01*
Y-47554D01*
X9363Y-46885D01*
X9105Y-46263D01*
X8695Y-45728D01*
X8161Y-45318D01*
X7538Y-45060D01*
X6870Y-44972D01*
D02*
G37*
G36*
X-4902Y-44957D02*
X-6032Y-45106D01*
X-7086Y-45542D01*
X-7990Y-46236D01*
X-8684Y-47141D01*
X-9121Y-48195D01*
X-9270Y-49325D01*
X-9121Y-50456D01*
X-8684Y-51509D01*
X-7990Y-52414D01*
X-7086Y-53108D01*
X-6032Y-53544D01*
X-4902Y-53693D01*
X-3771Y-53544D01*
X-2718Y-53108D01*
X-1813Y-52414D01*
X-1119Y-51509D01*
X-682Y-50456D01*
X-533Y-49325D01*
X-682Y-48195D01*
X-1119Y-47141D01*
X-1813Y-46236D01*
X-2718Y-45542D01*
X-3771Y-45106D01*
X-4902Y-44957D01*
D02*
G37*
G36*
X-96063Y-44447D02*
X-97296Y-44610D01*
X-98446Y-45086D01*
X-99432Y-45843D01*
X-100190Y-46830D01*
X-100666Y-47979D01*
X-100828Y-49212D01*
X-100666Y-50446D01*
X-100190Y-51595D01*
X-99432Y-52582D01*
X-98446Y-53339D01*
X-97296Y-53815D01*
X-96063Y-53978D01*
X-94830Y-53815D01*
X-93680Y-53339D01*
X-92694Y-52582D01*
X-91936Y-51595D01*
X-91460Y-50446D01*
X-91298Y-49212D01*
X-91460Y-47979D01*
X-91936Y-46830D01*
X-92694Y-45843D01*
X-93680Y-45086D01*
X-94830Y-44610D01*
X-96063Y-44447D01*
D02*
G37*
G36*
X-95275Y-60100D02*
Y-64173D01*
X-91203D01*
X-91268Y-63676D01*
X-91764Y-62479D01*
X-92553Y-61451D01*
X-93581Y-60662D01*
X-94778Y-60166D01*
X-95275Y-60100D01*
D02*
G37*
G36*
X-96850Y-60100D02*
X-97348Y-60166D01*
X-98545Y-60662D01*
X-99573Y-61451D01*
X-100362Y-62479D01*
X-100858Y-63676D01*
X-100923Y-64173D01*
X-96850D01*
Y-60100D01*
D02*
G37*
G36*
X-91203Y-65748D02*
X-95275D01*
Y-69820D01*
X-94778Y-69755D01*
X-93581Y-69259D01*
X-92553Y-68470D01*
X-91764Y-67442D01*
X-91268Y-66245D01*
X-91203Y-65748D01*
D02*
G37*
G36*
X-96850D02*
X-100923D01*
X-100858Y-66245D01*
X-100362Y-67442D01*
X-99573Y-68470D01*
X-98545Y-69259D01*
X-97348Y-69755D01*
X-96850Y-69821D01*
Y-65748D01*
D02*
G37*
G36*
X-135433Y-63537D02*
X-136821Y-63719D01*
X-138113Y-64255D01*
X-139224Y-65107D01*
X-140076Y-66217D01*
X-140611Y-67510D01*
X-140794Y-68897D01*
X-140611Y-70285D01*
X-140076Y-71578D01*
X-139224Y-72688D01*
X-138113Y-73540D01*
X-136821Y-74076D01*
X-135433Y-74258D01*
X-134046Y-74076D01*
X-132753Y-73540D01*
X-131642Y-72688D01*
X-130790Y-71578D01*
X-130255Y-70285D01*
X-130072Y-68897D01*
X-130255Y-67510D01*
X-130790Y-66217D01*
X-131642Y-65107D01*
X-132753Y-64255D01*
X-134046Y-63719D01*
X-135433Y-63537D01*
D02*
G37*
G36*
X6772Y-70408D02*
X3228D01*
X2560Y-70496D01*
X1938Y-70754D01*
X1403Y-71164D01*
X993Y-71699D01*
X735Y-72321D01*
X647Y-72989D01*
Y-76533D01*
X735Y-77201D01*
X993Y-77823D01*
X1403Y-78358D01*
X1938Y-78768D01*
X2560Y-79026D01*
X3228Y-79114D01*
X6772D01*
X7440Y-79026D01*
X8062Y-78768D01*
X8597Y-78358D01*
X9007Y-77823D01*
X9265Y-77201D01*
X9353Y-76533D01*
Y-72989D01*
X9265Y-72321D01*
X9007Y-71699D01*
X8597Y-71164D01*
X8062Y-70754D01*
X7440Y-70496D01*
X6772Y-70408D01*
D02*
G37*
G36*
X-5000Y-70393D02*
X-6131Y-70542D01*
X-7184Y-70978D01*
X-8089Y-71672D01*
X-8783Y-72577D01*
X-9219Y-73630D01*
X-9368Y-74761D01*
X-9219Y-75892D01*
X-8783Y-76945D01*
X-8089Y-77850D01*
X-7184Y-78544D01*
X-6131Y-78980D01*
X-5000Y-79129D01*
X-3869Y-78980D01*
X-2816Y-78544D01*
X-1911Y-77850D01*
X-1217Y-76945D01*
X-781Y-75892D01*
X-632Y-74761D01*
X-781Y-73630D01*
X-1217Y-72577D01*
X-1911Y-71672D01*
X-2816Y-70978D01*
X-3869Y-70542D01*
X-5000Y-70393D01*
D02*
G37*
G36*
X135630Y-76415D02*
X132087D01*
X131419Y-76503D01*
X130796Y-76761D01*
X130262Y-77171D01*
X129851Y-77706D01*
X129593Y-78328D01*
X129506Y-78996D01*
Y-82539D01*
X129593Y-83208D01*
X129851Y-83830D01*
X130262Y-84365D01*
X130796Y-84775D01*
X131419Y-85033D01*
X132087Y-85121D01*
X135630D01*
X136298Y-85033D01*
X136920Y-84775D01*
X137455Y-84365D01*
X137865Y-83830D01*
X138123Y-83208D01*
X138211Y-82539D01*
Y-78996D01*
X138123Y-78328D01*
X137865Y-77706D01*
X137455Y-77171D01*
X136920Y-76761D01*
X136298Y-76503D01*
X135630Y-76415D01*
D02*
G37*
G36*
X133858Y-86400D02*
X132728Y-86549D01*
X131674Y-86985D01*
X130770Y-87679D01*
X130075Y-88584D01*
X129639Y-89637D01*
X129490Y-90768D01*
X129639Y-91898D01*
X130075Y-92952D01*
X130770Y-93857D01*
X131674Y-94551D01*
X132728Y-94987D01*
X133858Y-95136D01*
X134989Y-94987D01*
X136042Y-94551D01*
X136947Y-93857D01*
X137641Y-92952D01*
X138077Y-91898D01*
X138226Y-90768D01*
X138077Y-89637D01*
X137641Y-88584D01*
X136947Y-87679D01*
X136042Y-86985D01*
X134989Y-86549D01*
X133858Y-86400D01*
D02*
G37*
G36*
X6870Y-96041D02*
X3327D01*
X2659Y-96129D01*
X2036Y-96387D01*
X1502Y-96797D01*
X1091Y-97331D01*
X834Y-97954D01*
X746Y-98622D01*
Y-102165D01*
X834Y-102833D01*
X1091Y-103456D01*
X1502Y-103990D01*
X2036Y-104401D01*
X2659Y-104658D01*
X3327Y-104746D01*
X6870D01*
X7538Y-104658D01*
X8161Y-104401D01*
X8695Y-103990D01*
X9105Y-103456D01*
X9363Y-102833D01*
X9451Y-102165D01*
Y-98622D01*
X9363Y-97954D01*
X9105Y-97331D01*
X8695Y-96797D01*
X8161Y-96387D01*
X7538Y-96129D01*
X6870Y-96041D01*
D02*
G37*
G36*
X-4902Y-96026D02*
X-6032Y-96174D01*
X-7086Y-96611D01*
X-7990Y-97305D01*
X-8684Y-98210D01*
X-9121Y-99263D01*
X-9270Y-100394D01*
X-9121Y-101524D01*
X-8684Y-102578D01*
X-7990Y-103482D01*
X-7086Y-104176D01*
X-6032Y-104613D01*
X-4902Y-104762D01*
X-3771Y-104613D01*
X-2717Y-104176D01*
X-1813Y-103482D01*
X-1119Y-102578D01*
X-682Y-101524D01*
X-533Y-100394D01*
X-682Y-99263D01*
X-1119Y-98210D01*
X-1813Y-97305D01*
X-2717Y-96611D01*
X-3771Y-96174D01*
X-4902Y-96026D01*
D02*
G37*
G36*
X79921Y-13347D02*
X79153Y-13500D01*
X78502Y-13935D01*
X78067Y-14586D01*
X77914Y-15354D01*
X78067Y-16122D01*
X78502Y-16773D01*
X79153Y-17209D01*
X79921Y-17361D01*
X80689Y-17209D01*
X80715Y-17191D01*
X81119Y-16960D01*
X81585Y-17008D01*
X82111Y-17077D01*
X83035Y-17460D01*
X83796Y-18044D01*
X83820Y-18079D01*
X83910Y-18169D01*
X83973Y-18485D01*
X84408Y-19136D01*
X85059Y-19571D01*
X85375Y-19634D01*
X93205Y-27464D01*
X93205Y-27464D01*
X95269Y-29528D01*
X95269Y-29528D01*
X98198Y-32457D01*
X98198Y-32457D01*
Y-32457D01*
X98548Y-32812D01*
X100301Y-34773D01*
X102113Y-37326D01*
X103627Y-40066D01*
X104824Y-42958D01*
X105691Y-45965D01*
X106215Y-49051D01*
X106363Y-51678D01*
X106366Y-52177D01*
X106366D01*
X106366Y-52177D01*
Y-100886D01*
Y-124879D01*
X105983Y-125038D01*
X105192Y-125645D01*
X104585Y-126436D01*
X104203Y-127357D01*
X104073Y-128346D01*
X104203Y-129335D01*
X104585Y-130256D01*
X105192Y-131047D01*
X105983Y-131654D01*
X106905Y-132036D01*
X107894Y-132166D01*
X108882Y-132036D01*
X109803Y-131654D01*
X110595Y-131047D01*
X111202Y-130256D01*
X111583Y-129335D01*
X111714Y-128346D01*
X111583Y-127357D01*
X111202Y-126436D01*
X111120Y-126330D01*
X111435Y-125919D01*
X111706Y-126031D01*
X112425Y-126126D01*
X116362D01*
X117081Y-126031D01*
X117752Y-125753D01*
X118327Y-125311D01*
X118769Y-124736D01*
X119047Y-124065D01*
X119142Y-123346D01*
X119047Y-122626D01*
X118769Y-121956D01*
X118327Y-121380D01*
X117752Y-120939D01*
X117081Y-120661D01*
X116362Y-120566D01*
X112425D01*
X111706Y-120661D01*
X111035Y-120939D01*
X110459Y-121380D01*
X110078Y-121878D01*
X109777Y-121840D01*
X109578Y-121743D01*
Y-102374D01*
X129836D01*
X130075Y-102952D01*
X130770Y-103857D01*
X131674Y-104551D01*
X132728Y-104987D01*
X133858Y-105136D01*
X134989Y-104987D01*
X136042Y-104551D01*
X136947Y-103857D01*
X137641Y-102952D01*
X138077Y-101898D01*
X138226Y-100768D01*
X138077Y-99637D01*
X137641Y-98584D01*
X136947Y-97679D01*
X136042Y-96985D01*
X134989Y-96549D01*
X133858Y-96400D01*
X132728Y-96549D01*
X131674Y-96985D01*
X130770Y-97679D01*
X130075Y-98584D01*
X129836Y-99162D01*
X109578D01*
Y-52177D01*
X109596D01*
X109400Y-48693D01*
X108815Y-45252D01*
X107849Y-41899D01*
X106514Y-38675D01*
X104826Y-35621D01*
X102807Y-32775D01*
X100482Y-30174D01*
X100482Y-30174D01*
X100115Y-29833D01*
X97540Y-27257D01*
X97540Y-27257D01*
X97540Y-27257D01*
X95476Y-25193D01*
X95476Y-25193D01*
X95476Y-25193D01*
X87793Y-17510D01*
X87681Y-16949D01*
X87246Y-16297D01*
X86595Y-15862D01*
X86023Y-15748D01*
X85027Y-14931D01*
X83811Y-14281D01*
X82491Y-13881D01*
X81119Y-13746D01*
Y-13746D01*
X80714Y-13517D01*
X80689Y-13500D01*
X79921Y-13347D01*
D02*
G37*
G36*
X134646Y-106305D02*
Y-109981D01*
X138321D01*
X138269Y-109586D01*
X137813Y-108484D01*
X137087Y-107539D01*
X136142Y-106813D01*
X135040Y-106357D01*
X134646Y-106305D01*
D02*
G37*
G36*
X133071Y-106305D02*
X132676Y-106357D01*
X131575Y-106813D01*
X130629Y-107539D01*
X129903Y-108484D01*
X129447Y-109586D01*
X129395Y-109981D01*
X133071D01*
Y-106305D01*
D02*
G37*
G36*
X138321Y-111555D02*
X134646D01*
Y-115231D01*
X135040Y-115179D01*
X136142Y-114723D01*
X137087Y-113997D01*
X137813Y-113051D01*
X138269Y-111950D01*
X138321Y-111555D01*
D02*
G37*
G36*
X133071D02*
X129395D01*
X129447Y-111950D01*
X129903Y-113051D01*
X130629Y-113997D01*
X131575Y-114723D01*
X132676Y-115179D01*
X133071Y-115231D01*
Y-111555D01*
D02*
G37*
G36*
X-72933Y37440D02*
X-73701Y37287D01*
X-74352Y36852D01*
X-74787Y36201D01*
X-74940Y35433D01*
X-74787Y34665D01*
X-74739Y34593D01*
Y28246D01*
X-74739Y28246D01*
X-74747D01*
X-74578Y24817D01*
X-74074Y21422D01*
X-73240Y18092D01*
X-72084Y14859D01*
X-70616Y11756D01*
X-68851Y8812D01*
X-66806Y6054D01*
X-64501Y3511D01*
X-61957Y1205D01*
X-59200Y-840D01*
X-56255Y-2605D01*
X-53152Y-4072D01*
X-49920Y-5229D01*
X-46590Y-6063D01*
X-43194Y-6567D01*
X-41827Y-6634D01*
X-41614Y-6775D01*
X-40846Y-6928D01*
X-40078Y-6775D01*
X-40001Y-6724D01*
X-39765Y-6735D01*
Y-6728D01*
X54693Y-6728D01*
X54805Y-6705D01*
X57433Y-6877D01*
X60126Y-7413D01*
X62726Y-8296D01*
X65188Y-9510D01*
X67471Y-11036D01*
X69536Y-12846D01*
X71346Y-14910D01*
X72872Y-17193D01*
X74086Y-19656D01*
X74968Y-22256D01*
X75504Y-24949D01*
X75676Y-27577D01*
X75654Y-27689D01*
Y-44271D01*
X75552Y-44783D01*
X75654Y-45296D01*
Y-122016D01*
X832D01*
Y-122010D01*
X-662Y-122158D01*
X-2099Y-122593D01*
X-3424Y-123301D01*
X-4580Y-124251D01*
X-4584Y-124254D01*
X-4589Y-124249D01*
X-5710Y-125615D01*
X-6542Y-127173D01*
X-7055Y-128863D01*
X-7211Y-130447D01*
X-7464Y-130826D01*
X-7617Y-131594D01*
X-7464Y-132362D01*
X-7029Y-133014D01*
X-6378Y-133449D01*
X-5610Y-133601D01*
X-4842Y-133449D01*
X-4191Y-133014D01*
X-3756Y-132362D01*
X-3603Y-131594D01*
X-3756Y-130826D01*
X-4012Y-130443D01*
X-3837Y-129115D01*
X-3256Y-127712D01*
X-2388Y-126581D01*
X-2310Y-126529D01*
X-2308Y-126527D01*
X-2307Y-126526D01*
X-2275Y-126479D01*
X-1399Y-125806D01*
X-323Y-125361D01*
X774Y-125216D01*
X832Y-125228D01*
X3793D01*
X4056Y-125639D01*
X4047Y-125728D01*
X3898Y-126476D01*
X4051Y-127244D01*
X4486Y-127895D01*
X5138Y-128331D01*
X5906Y-128483D01*
X6674Y-128331D01*
X7325Y-127895D01*
X7760Y-127244D01*
X7913Y-126476D01*
X7764Y-125728D01*
X7755Y-125639D01*
X8019Y-125228D01*
X75654D01*
Y-163004D01*
X75670Y-163085D01*
X75520Y-164607D01*
X75053Y-166149D01*
X74293Y-167569D01*
X73323Y-168751D01*
X73254Y-168798D01*
X70012Y-172040D01*
X69634Y-171883D01*
X68504Y-171734D01*
X67373Y-171883D01*
X66320Y-172319D01*
X65415Y-173014D01*
X64721Y-173918D01*
X64285Y-174972D01*
X64136Y-176102D01*
X64285Y-177233D01*
X64721Y-178286D01*
X65415Y-179191D01*
X66320Y-179885D01*
X67373Y-180322D01*
X68504Y-180470D01*
X69634Y-180322D01*
X70688Y-179885D01*
X71593Y-179191D01*
X72287Y-178286D01*
X72723Y-177233D01*
X72872Y-176102D01*
X72723Y-174972D01*
X72567Y-174594D01*
X75809Y-171352D01*
X75810Y-171353D01*
X77013Y-169944D01*
X77981Y-168365D01*
X78690Y-166653D01*
X79123Y-164851D01*
X79268Y-163004D01*
X79267D01*
Y-45771D01*
X79413Y-45551D01*
X79566Y-44783D01*
X79413Y-44015D01*
X79267Y-43796D01*
Y-27689D01*
X79267Y-27689D01*
X79271D01*
X79116Y-24937D01*
X78654Y-22220D01*
X77891Y-19571D01*
X76837Y-17025D01*
X75503Y-14613D01*
X73909Y-12365D01*
X72072Y-10310D01*
X70017Y-8473D01*
X67769Y-6878D01*
X65357Y-5545D01*
X62810Y-4490D01*
X60162Y-3727D01*
X57445Y-3266D01*
X54693Y-3111D01*
Y-3115D01*
X-39765Y-3115D01*
X-39765Y-3115D01*
X-40233Y-3036D01*
X-40846Y-2914D01*
X-41529Y-3050D01*
X-43281Y-2952D01*
X-46751Y-2362D01*
X-50134Y-1387D01*
X-53387Y-40D01*
X-56469Y1663D01*
X-59340Y3700D01*
X-61965Y6046D01*
X-64311Y8672D01*
X-66348Y11543D01*
X-68051Y14624D01*
X-69399Y17877D01*
X-70373Y21260D01*
X-70963Y24731D01*
X-71153Y28112D01*
X-71126Y28246D01*
Y34593D01*
X-71078Y34665D01*
X-70926Y35433D01*
X-71078Y36201D01*
X-71513Y36852D01*
X-72165Y37287D01*
X-72933Y37440D01*
D02*
G37*
G36*
X117894Y-129526D02*
X116905Y-129656D01*
X115983Y-130038D01*
X115192Y-130645D01*
X114585Y-131436D01*
X114204Y-132357D01*
X114073Y-133346D01*
X114204Y-134335D01*
X114585Y-135256D01*
X115192Y-136047D01*
X115983Y-136654D01*
X116905Y-137036D01*
X117894Y-137166D01*
X118882Y-137036D01*
X119804Y-136654D01*
X120595Y-136047D01*
X121202Y-135256D01*
X121583Y-134335D01*
X121713Y-133346D01*
X121583Y-132357D01*
X121202Y-131436D01*
X120595Y-130645D01*
X119804Y-130038D01*
X118882Y-129656D01*
X117894Y-129526D01*
D02*
G37*
G36*
X108484Y-134405D02*
Y-137755D01*
X111834D01*
X111775Y-137306D01*
X111374Y-136337D01*
X110735Y-135504D01*
X109903Y-134866D01*
X108934Y-134464D01*
X108484Y-134405D01*
D02*
G37*
G36*
X107303Y-134405D02*
X106853Y-134464D01*
X105884Y-134866D01*
X105052Y-135504D01*
X104413Y-136337D01*
X104012Y-137306D01*
X103953Y-137755D01*
X107303D01*
Y-134405D01*
D02*
G37*
G36*
X111834Y-138936D02*
X108484D01*
Y-142287D01*
X108934Y-142227D01*
X109903Y-141826D01*
X110735Y-141187D01*
X111374Y-140355D01*
X111775Y-139386D01*
X111834Y-138936D01*
D02*
G37*
G36*
X107303D02*
X103953D01*
X104012Y-139386D01*
X104413Y-140355D01*
X105052Y-141187D01*
X105884Y-141826D01*
X106853Y-142227D01*
X107303Y-142287D01*
Y-138936D01*
D02*
G37*
G36*
X117894Y-139526D02*
X116905Y-139656D01*
X115983Y-140038D01*
X115192Y-140645D01*
X114585Y-141436D01*
X114204Y-142357D01*
X114073Y-143346D01*
X114204Y-144335D01*
X114585Y-145256D01*
X115192Y-146047D01*
X115983Y-146654D01*
X116905Y-147036D01*
X117894Y-147166D01*
X118882Y-147036D01*
X119804Y-146654D01*
X120595Y-146047D01*
X121202Y-145256D01*
X121583Y-144335D01*
X121713Y-143346D01*
X121583Y-142357D01*
X121202Y-141436D01*
X120595Y-140645D01*
X119804Y-140038D01*
X118882Y-139656D01*
X117894Y-139526D01*
D02*
G37*
G36*
X108484Y-144405D02*
Y-147755D01*
X111834D01*
X111775Y-147306D01*
X111374Y-146336D01*
X110735Y-145504D01*
X109903Y-144866D01*
X108934Y-144464D01*
X108484Y-144405D01*
D02*
G37*
G36*
X107303Y-144405D02*
X106853Y-144464D01*
X105884Y-144866D01*
X105052Y-145504D01*
X104413Y-146336D01*
X104012Y-147306D01*
X103953Y-147755D01*
X107303D01*
Y-144405D01*
D02*
G37*
G36*
X111834Y-148936D02*
X108484D01*
Y-152287D01*
X108934Y-152227D01*
X109903Y-151826D01*
X110735Y-151187D01*
X111374Y-150355D01*
X111775Y-149386D01*
X111834Y-148936D01*
D02*
G37*
G36*
X107303D02*
X103953D01*
X104012Y-149386D01*
X104413Y-150355D01*
X105052Y-151187D01*
X105884Y-151826D01*
X106853Y-152227D01*
X107303Y-152287D01*
Y-148936D01*
D02*
G37*
G36*
X117894Y-149526D02*
X116905Y-149656D01*
X115983Y-150038D01*
X115192Y-150645D01*
X114585Y-151436D01*
X114204Y-152357D01*
X114073Y-153346D01*
X114204Y-154335D01*
X114585Y-155256D01*
X115192Y-156047D01*
X115983Y-156654D01*
X116905Y-157036D01*
X117894Y-157166D01*
X118882Y-157036D01*
X119804Y-156654D01*
X120595Y-156047D01*
X121202Y-155256D01*
X121583Y-154335D01*
X121713Y-153346D01*
X121583Y-152357D01*
X121202Y-151436D01*
X120595Y-150645D01*
X119804Y-150038D01*
X118882Y-149656D01*
X117894Y-149526D01*
D02*
G37*
G36*
X9449Y-161772D02*
X8681Y-161925D01*
X8609Y-161973D01*
X-8609D01*
X-8681Y-161925D01*
X-9449Y-161772D01*
X-10217Y-161925D01*
X-10868Y-162360D01*
X-11303Y-163011D01*
X-11456Y-163779D01*
X-11303Y-164548D01*
X-10868Y-165199D01*
X-10217Y-165634D01*
X-9449Y-165787D01*
X-8681Y-165634D01*
X-8609Y-165586D01*
X8609D01*
X8681Y-165634D01*
X9449Y-165787D01*
X10217Y-165634D01*
X10289Y-165586D01*
X26382D01*
X26382Y-165586D01*
Y-165586D01*
X26882Y-165585D01*
X29375Y-165748D01*
X32317Y-166333D01*
X35157Y-167297D01*
X37847Y-168624D01*
X40341Y-170290D01*
X42345Y-172048D01*
X42027Y-172434D01*
X41653Y-172148D01*
X40552Y-171691D01*
X40158Y-171639D01*
Y-175315D01*
X43833D01*
X43781Y-174920D01*
X43325Y-173819D01*
X43104Y-173531D01*
X43481Y-173201D01*
X54731Y-184451D01*
X54730Y-184452D01*
X56138Y-185655D01*
X57718Y-186623D01*
X59430Y-187332D01*
X61232Y-187765D01*
X63079Y-187910D01*
Y-187909D01*
X64156D01*
X64239Y-188542D01*
X64497Y-189165D01*
X64907Y-189699D01*
X65442Y-190109D01*
X66064Y-190367D01*
X66732Y-190455D01*
X70275D01*
X70944Y-190367D01*
X71566Y-190109D01*
X72101Y-189699D01*
X72511Y-189165D01*
X72769Y-188542D01*
X72857Y-187874D01*
Y-184331D01*
X72769Y-183663D01*
X72511Y-183040D01*
X72101Y-182506D01*
X71566Y-182095D01*
X70944Y-181837D01*
X70275Y-181750D01*
X66732D01*
X66064Y-181837D01*
X65442Y-182095D01*
X64907Y-182506D01*
X64497Y-183040D01*
X64239Y-183663D01*
X64156Y-184296D01*
X63079D01*
X62998Y-184312D01*
X61476Y-184162D01*
X59934Y-183695D01*
X58513Y-182935D01*
X57332Y-181965D01*
X57285Y-181896D01*
X45478Y-170089D01*
X45131Y-169732D01*
X45131Y-169732D01*
X44767Y-169406D01*
X42914Y-167751D01*
X40489Y-166030D01*
X37887Y-164592D01*
X35140Y-163454D01*
X32282Y-162631D01*
X29351Y-162133D01*
X26382Y-161966D01*
Y-161973D01*
X10289D01*
X10217Y-161925D01*
X9449Y-161772D01*
D02*
G37*
G36*
X11378Y-170973D02*
X10571Y-171134D01*
X9888Y-171590D01*
X9431Y-172274D01*
X9270Y-173081D01*
X9431Y-173887D01*
X9888Y-174571D01*
X10571Y-175028D01*
X11378Y-175188D01*
X12184Y-175028D01*
X12868Y-174571D01*
X13325Y-173887D01*
X13485Y-173081D01*
X13325Y-172274D01*
X12868Y-171590D01*
X12184Y-171134D01*
X11378Y-170973D01*
D02*
G37*
G36*
X-11378D02*
X-12184Y-171134D01*
X-12868Y-171590D01*
X-13325Y-172274D01*
X-13485Y-173081D01*
X-13325Y-173887D01*
X-12868Y-174571D01*
X-12184Y-175028D01*
X-11378Y-175188D01*
X-10571Y-175028D01*
X-9888Y-174571D01*
X-9431Y-173887D01*
X-9270Y-173081D01*
X-9431Y-172274D01*
X-9888Y-171590D01*
X-10571Y-171134D01*
X-11378Y-170973D01*
D02*
G37*
G36*
X-38583Y-171639D02*
Y-175315D01*
X-34907D01*
X-34959Y-174920D01*
X-35415Y-173819D01*
X-36141Y-172873D01*
X-37087Y-172148D01*
X-38188Y-171691D01*
X-38583Y-171639D01*
D02*
G37*
G36*
X-40158Y-171639D02*
X-40552Y-171691D01*
X-41653Y-172148D01*
X-42599Y-172873D01*
X-43325Y-173819D01*
X-43781Y-174920D01*
X-43833Y-175315D01*
X-40158D01*
Y-171639D01*
D02*
G37*
G36*
X38583Y-171639D02*
X38188Y-171691D01*
X37087Y-172148D01*
X36141Y-172873D01*
X35415Y-173819D01*
X34959Y-174920D01*
X34907Y-175315D01*
X38583D01*
Y-171639D01*
D02*
G37*
G36*
X-40158Y-176890D02*
X-43833D01*
X-43781Y-177284D01*
X-43325Y-178386D01*
X-42599Y-179331D01*
X-41653Y-180057D01*
X-40552Y-180513D01*
X-40158Y-180565D01*
Y-176890D01*
D02*
G37*
G36*
X43833Y-176890D02*
X40158D01*
Y-180565D01*
X40552Y-180513D01*
X41653Y-180057D01*
X42599Y-179331D01*
X43325Y-178386D01*
X43781Y-177284D01*
X43833Y-176890D01*
D02*
G37*
G36*
X38583D02*
X34907D01*
X34959Y-177284D01*
X35415Y-178386D01*
X36141Y-179331D01*
X37087Y-180057D01*
X38188Y-180513D01*
X38583Y-180565D01*
Y-176890D01*
D02*
G37*
G36*
X-34907Y-176890D02*
X-38583D01*
Y-180565D01*
X-38188Y-180513D01*
X-37087Y-180057D01*
X-36141Y-179331D01*
X-35415Y-178386D01*
X-34959Y-177284D01*
X-34907Y-176890D01*
D02*
G37*
G36*
X-18602Y-140513D02*
X-19370Y-140665D01*
X-20021Y-141100D01*
X-20457Y-141752D01*
X-20609Y-142519D01*
X-20585Y-142643D01*
X-20914Y-143072D01*
X-21498Y-143463D01*
X-21933Y-144114D01*
X-21950Y-144198D01*
X-59648Y-181896D01*
X-59694Y-181965D01*
X-60876Y-182935D01*
X-62297Y-183695D01*
X-63838Y-184162D01*
X-64558Y-184233D01*
X-64633Y-183663D01*
X-64891Y-183040D01*
X-65301Y-182506D01*
X-65835Y-182095D01*
X-66458Y-181837D01*
X-67126Y-181750D01*
X-70669D01*
X-71337Y-181837D01*
X-71960Y-182095D01*
X-72494Y-182506D01*
X-72905Y-183040D01*
X-73163Y-183663D01*
X-73250Y-184331D01*
Y-187874D01*
X-73163Y-188542D01*
X-72905Y-189165D01*
X-72494Y-189699D01*
X-71960Y-190109D01*
X-71337Y-190367D01*
X-70669Y-190455D01*
X-67126D01*
X-66458Y-190367D01*
X-65835Y-190109D01*
X-65301Y-189699D01*
X-64891Y-189165D01*
X-64633Y-188542D01*
X-64545Y-187874D01*
Y-187840D01*
X-63594Y-187765D01*
X-61793Y-187332D01*
X-60081Y-186623D01*
X-58501Y-185655D01*
X-57092Y-184452D01*
X-57093Y-184451D01*
X-19395Y-146753D01*
X-19311Y-146736D01*
X-18659Y-146301D01*
X-18224Y-145650D01*
X-18176Y-145407D01*
X-17736Y-144870D01*
X-17268Y-143995D01*
X-17183Y-143939D01*
X-16748Y-143288D01*
X-16595Y-142519D01*
X-16748Y-141752D01*
X-17183Y-141100D01*
X-17834Y-140665D01*
X-18602Y-140513D01*
D02*
G37*
G36*
X41142Y-181551D02*
X40158D01*
Y-185315D01*
X43922D01*
Y-184331D01*
X43827Y-183611D01*
X43549Y-182941D01*
X43107Y-182365D01*
X42532Y-181923D01*
X41861Y-181646D01*
X41142Y-181551D01*
D02*
G37*
G36*
X-37598D02*
X-38583D01*
Y-185315D01*
X-34819D01*
Y-184331D01*
X-34914Y-183611D01*
X-35191Y-182941D01*
X-35633Y-182365D01*
X-36209Y-181923D01*
X-36879Y-181646D01*
X-37598Y-181551D01*
D02*
G37*
G36*
X-40158D02*
X-41142D01*
X-41861Y-181646D01*
X-42532Y-181923D01*
X-43107Y-182365D01*
X-43549Y-182941D01*
X-43827Y-183611D01*
X-43921Y-184331D01*
Y-185315D01*
X-40158D01*
Y-181551D01*
D02*
G37*
G36*
X38583D02*
X37598D01*
X36879Y-181646D01*
X36209Y-181923D01*
X35633Y-182365D01*
X35191Y-182941D01*
X34914Y-183611D01*
X34819Y-184331D01*
Y-185315D01*
X38583D01*
Y-181551D01*
D02*
G37*
G36*
X43922Y-186890D02*
X40158D01*
Y-190654D01*
X41142D01*
X41861Y-190559D01*
X42532Y-190281D01*
X43107Y-189839D01*
X43549Y-189264D01*
X43827Y-188593D01*
X43922Y-187874D01*
Y-186890D01*
D02*
G37*
G36*
X38583D02*
X34819D01*
Y-187874D01*
X34914Y-188593D01*
X35191Y-189264D01*
X35633Y-189839D01*
X36209Y-190281D01*
X36879Y-190559D01*
X37598Y-190654D01*
X38583D01*
Y-186890D01*
D02*
G37*
G36*
X-34819D02*
X-38583D01*
Y-190654D01*
X-37598D01*
X-36879Y-190559D01*
X-36209Y-190281D01*
X-35633Y-189839D01*
X-35191Y-189264D01*
X-34914Y-188593D01*
X-34819Y-187874D01*
Y-186890D01*
D02*
G37*
G36*
X-40158D02*
X-43921D01*
Y-187874D01*
X-43827Y-188593D01*
X-43549Y-189264D01*
X-43107Y-189839D01*
X-42532Y-190281D01*
X-41861Y-190559D01*
X-41142Y-190654D01*
X-40158D01*
Y-186890D01*
D02*
G37*
%LPD*%
D12*
X89641Y26303D02*
G03*
X82570Y29232I-7071J-7071D01*
G01*
X25008Y17618D02*
G03*
X17937Y14689I0J-10000D01*
G01*
X9277Y29232D02*
G03*
X5000Y27461I0J-6049D01*
G01*
X25008Y17618D02*
X90748D01*
X9277Y29232D02*
X82570D01*
X89641Y26303D02*
X98425Y17520D01*
X5118Y1870D02*
X17937Y14689D01*
D13*
X5906Y-126476D02*
Y-123622D01*
D35*
X-24803Y182283D02*
D03*
X-31496Y131102D02*
D03*
X31496D02*
D03*
X24803Y182283D02*
D03*
D44*
X-68898Y-176102D02*
G03*
X-61877Y-173196I0J9933D01*
G01*
X-85138Y26142D02*
G03*
X-43051Y-15945I42087J0D01*
G01*
X-28618Y-139937D02*
G03*
X-25689Y-132866I-7071J7071D01*
G01*
X-10737Y-117913D02*
G03*
X-25689Y-132866I0J-14952D01*
G01*
X4959Y-117913D02*
G03*
X17224Y-105648I0J12265D01*
G01*
Y-32912D02*
G03*
X258Y-15945I-16967J0D01*
G01*
X-85039Y134289D02*
G03*
X-85236Y134764I-672J0D01*
G01*
X86507Y91142D02*
G03*
X93578Y94071I0J10000D01*
G01*
X43849Y-171015D02*
G03*
X26382Y-163779I-17467J-17467D01*
G01*
X56008Y-183173D02*
G03*
X63079Y-186102I7071J7071D01*
G01*
X-65441Y-186102D02*
G03*
X-58370Y-183173I0J10000D01*
G01*
X-20079Y-144882D02*
G03*
X-18516Y-142428I-4752J4752D01*
G01*
X74532Y-170075D02*
G03*
X77460Y-163004I-7071J7071D01*
G01*
X77460Y-27689D02*
G03*
X54693Y-4921I-22767J0D01*
G01*
X-72933Y28246D02*
G03*
X-39765Y-4921I33167J0D01*
G01*
X-85138Y26142D02*
Y91142D01*
X-61877Y-173196D02*
X-28618Y-139937D01*
X-10737Y-117913D02*
X4959D01*
X-43051Y-15945D02*
X258D01*
X-85039Y91142D02*
Y134289D01*
Y91142D02*
X86507D01*
X17224Y-67913D02*
Y-32912D01*
X93578Y94071D02*
X94587Y95079D01*
X17224Y-105648D02*
Y-70965D01*
X77460Y-163004D02*
Y-27689D01*
X17224Y-70965D02*
Y-67913D01*
X43849Y-171015D02*
X56008Y-183173D01*
X9449Y-163779D02*
X26382D01*
X63079Y-186102D02*
X68504D01*
X-68898Y-186102D02*
X-65441D01*
X-58370Y-183173D02*
X-20079Y-144882D01*
X-9449Y-163779D02*
X9449D01*
X68504Y-176102D02*
X74532Y-170075D01*
X-39765Y-4921D02*
X54693Y-4921D01*
X-72933Y28246D02*
Y35433D01*
D45*
X107972Y-125823D02*
G03*
X108976Y-128247I3429J0D01*
G01*
X108257Y-100768D02*
G03*
X107972Y-100886I0J-403D01*
G01*
X107972Y-52177D02*
G03*
X99333Y-31322I-29493J0D01*
G01*
X84955Y-16943D02*
G03*
X81119Y-15354I-3836J-3836D01*
G01*
X-3445Y-125394D02*
G03*
X-5610Y-130621I5228J-5228D01*
G01*
X-3442Y-125391D02*
G03*
X-3445Y-125394I4274J-4280D01*
G01*
X832Y-123622D02*
G03*
X-3442Y-125391I0J-6048D01*
G01*
X84955Y-16943D02*
X94340Y-26329D01*
X107972Y-125823D02*
Y-100886D01*
Y-52177D01*
X108257Y-100768D02*
X133858D01*
X5906Y-123622D02*
X77460D01*
X832D02*
X5906D01*
X94340Y-26329D02*
X96405Y-28393D01*
Y-28393D02*
X99333Y-31322D01*
X96405Y-28393D02*
Y-28393D01*
X133858Y-100768D02*
X136232D01*
X94340Y-26329D02*
Y-26329D01*
X-5610Y-131594D02*
Y-130621D01*
Y-131890D02*
Y-131594D01*
D54*
X-96063Y3937D02*
D03*
Y19685D02*
D03*
Y35433D02*
D03*
Y-64960D02*
D03*
Y-49212D02*
D03*
Y-33464D02*
D03*
D62*
X114393Y-123346D02*
D03*
D63*
X117894Y-153346D02*
D03*
X107894Y-148346D02*
D03*
X117894Y-143346D02*
D03*
X107894Y-138346D02*
D03*
X117894Y-133346D02*
D03*
X107894Y-128346D02*
D03*
D64*
X-68898Y-176102D02*
D03*
X68504D02*
D03*
X-4882Y1870D02*
D03*
X-5000Y27461D02*
D03*
Y52925D02*
D03*
Y78740D02*
D03*
X-5000Y-23594D02*
D03*
X-4902Y-49325D02*
D03*
X-5000Y-74761D02*
D03*
X-4902Y-100394D02*
D03*
X133858Y-110768D02*
D03*
Y-100768D02*
D03*
Y-90768D02*
D03*
X85039Y144764D02*
D03*
X-39370Y-176102D02*
D03*
X39370D02*
D03*
X-85236Y134764D02*
D03*
D65*
X-68898Y-186102D02*
D03*
X68504D02*
D03*
X85039Y134764D02*
D03*
X-39370Y-186102D02*
D03*
X39370D02*
D03*
X-85236Y144764D02*
D03*
D66*
X5118Y1870D02*
D03*
X5000Y27461D02*
D03*
Y52925D02*
D03*
Y78740D02*
D03*
X5000Y-23594D02*
D03*
X5098Y-49325D02*
D03*
X5000Y-74761D02*
D03*
X5098Y-100394D02*
D03*
X133858Y-80768D02*
D03*
D67*
X11378Y-173081D02*
D03*
X-11378D02*
D03*
D68*
X-127953Y-177165D02*
D03*
X-127953Y177165D02*
D03*
X127953D02*
D03*
X127953Y-177165D02*
D03*
D69*
X-0Y157480D02*
D03*
D70*
X-135433Y0D02*
D03*
Y39370D02*
D03*
X-135433Y-68897D02*
D03*
X-135433Y-29527D02*
D03*
D71*
X12402Y-110335D02*
D03*
X42028Y-7776D02*
D03*
X113779Y-26772D02*
D03*
X121653Y-26969D02*
D03*
X67913Y120866D02*
D03*
X83268Y55020D02*
D03*
X70571Y7185D02*
D03*
X58071Y-8071D02*
D03*
X62992Y295D02*
D03*
X11811Y-61811D02*
D03*
X137794Y185038D02*
D03*
X143699Y173227D02*
D03*
X137794Y161416D02*
D03*
X143699Y149605D02*
D03*
X137794Y137794D02*
D03*
X143699Y125983D02*
D03*
X137794Y114172D02*
D03*
X143699Y102361D02*
D03*
X137794Y90550D02*
D03*
X143699Y78739D02*
D03*
X137794Y66928D02*
D03*
Y-74805D02*
D03*
X143699Y-86616D02*
D03*
Y-133860D02*
D03*
X137794Y-145671D02*
D03*
X143699Y-157482D02*
D03*
X137794Y-169293D02*
D03*
X143699Y-181104D02*
D03*
X137794Y-192915D02*
D03*
X125983Y161416D02*
D03*
X131888Y149605D02*
D03*
X125983Y137794D02*
D03*
X131888Y125983D02*
D03*
X125983Y114172D02*
D03*
X131888Y102361D02*
D03*
X125983Y90550D02*
D03*
X131888Y78739D02*
D03*
X125983Y66928D02*
D03*
X131888Y-62994D02*
D03*
X125983Y-122049D02*
D03*
X131888Y-133860D02*
D03*
X125983Y-145671D02*
D03*
X131888Y-157482D02*
D03*
X125983Y-192915D02*
D03*
X114172Y185038D02*
D03*
Y161416D02*
D03*
X120077Y149605D02*
D03*
X114172Y137794D02*
D03*
X120077Y125983D02*
D03*
X114172Y114172D02*
D03*
X120077Y102361D02*
D03*
X114172Y90550D02*
D03*
X120077Y78739D02*
D03*
X114172Y66928D02*
D03*
X120077Y55117D02*
D03*
X114172Y43306D02*
D03*
X120077Y31495D02*
D03*
Y7873D02*
D03*
X114172Y-3938D02*
D03*
Y-74805D02*
D03*
X120077Y-86616D02*
D03*
Y-110238D02*
D03*
X114172Y-169293D02*
D03*
Y-192915D02*
D03*
X102361Y185038D02*
D03*
X108266Y173227D02*
D03*
X102361Y161416D02*
D03*
X108266Y149605D02*
D03*
X102361Y137794D02*
D03*
X108266Y125983D02*
D03*
X102361Y114172D02*
D03*
X108266Y102361D02*
D03*
Y55117D02*
D03*
X102361Y43306D02*
D03*
X108266Y31495D02*
D03*
Y-39372D02*
D03*
X102361Y-51183D02*
D03*
Y-74805D02*
D03*
Y-98427D02*
D03*
Y-122049D02*
D03*
Y-145671D02*
D03*
X108266Y-157482D02*
D03*
X102361Y-169293D02*
D03*
X108266Y-181104D02*
D03*
X102361Y-192915D02*
D03*
X90550Y185038D02*
D03*
X96455Y173227D02*
D03*
X90550Y161416D02*
D03*
X96455Y149605D02*
D03*
Y125983D02*
D03*
X90550Y114172D02*
D03*
X96455Y102361D02*
D03*
X90550Y66928D02*
D03*
X96455Y55117D02*
D03*
Y31495D02*
D03*
X90550Y-3938D02*
D03*
Y-27561D02*
D03*
X96455Y-39372D02*
D03*
X90550Y-51183D02*
D03*
X96455Y-62994D02*
D03*
X90550Y-74805D02*
D03*
X96455Y-86616D02*
D03*
X90550Y-98427D02*
D03*
X96455Y-110238D02*
D03*
X90550Y-122049D02*
D03*
X96455Y-133860D02*
D03*
X90550Y-145671D02*
D03*
X96455Y-157482D02*
D03*
X90550Y-169293D02*
D03*
X96455Y-181104D02*
D03*
X90550Y-192915D02*
D03*
X78739Y185038D02*
D03*
X84644Y173227D02*
D03*
X78739Y161416D02*
D03*
Y137794D02*
D03*
X84644Y125983D02*
D03*
Y102361D02*
D03*
Y78739D02*
D03*
Y7873D02*
D03*
Y-86616D02*
D03*
Y-110238D02*
D03*
Y-133860D02*
D03*
Y-157482D02*
D03*
Y-181104D02*
D03*
X78739Y-192915D02*
D03*
X66928Y185038D02*
D03*
X72833Y173227D02*
D03*
X66928Y161416D02*
D03*
X72833Y149605D02*
D03*
Y125983D02*
D03*
X66928Y-27561D02*
D03*
X72833Y-39372D02*
D03*
X66928Y-51183D02*
D03*
X72833Y-62994D02*
D03*
X66928Y-74805D02*
D03*
X72833Y-110238D02*
D03*
Y-133860D02*
D03*
X66928Y-145671D02*
D03*
X72833Y-157482D02*
D03*
X66928Y-169293D02*
D03*
X72833Y-181104D02*
D03*
X66928Y-192915D02*
D03*
X55117Y185038D02*
D03*
X61022Y173227D02*
D03*
Y149605D02*
D03*
X55117Y114172D02*
D03*
X61022Y102361D02*
D03*
Y78739D02*
D03*
X55117Y66928D02*
D03*
X61022Y55117D02*
D03*
X55117Y43306D02*
D03*
X61022Y-39372D02*
D03*
X55117Y-51183D02*
D03*
X61022Y-62994D02*
D03*
X55117Y-74805D02*
D03*
X61022Y-86616D02*
D03*
X55117Y-98427D02*
D03*
X61022Y-110238D02*
D03*
Y-133860D02*
D03*
X55117Y-145671D02*
D03*
X61022Y-157482D02*
D03*
X55117Y-169293D02*
D03*
X61022Y-181104D02*
D03*
X55117Y-192915D02*
D03*
X43306Y185038D02*
D03*
X49211Y173227D02*
D03*
Y149605D02*
D03*
X43306Y137794D02*
D03*
X49211Y125983D02*
D03*
X43306Y114172D02*
D03*
X49211Y102361D02*
D03*
X43306Y66928D02*
D03*
X49211Y55117D02*
D03*
X43306Y43306D02*
D03*
X49211Y7873D02*
D03*
Y-15750D02*
D03*
Y-39372D02*
D03*
X43306Y-51183D02*
D03*
X49211Y-62994D02*
D03*
X43306Y-74805D02*
D03*
X49211Y-86616D02*
D03*
X43306Y-98427D02*
D03*
X49211Y-133860D02*
D03*
X43306Y-145671D02*
D03*
X49211Y-157482D02*
D03*
Y-181104D02*
D03*
X43306Y-192915D02*
D03*
X31495Y185038D02*
D03*
X37400Y173227D02*
D03*
X31495Y137794D02*
D03*
X37400Y125983D02*
D03*
X31495Y114172D02*
D03*
X37400Y102361D02*
D03*
Y78739D02*
D03*
X31495Y66928D02*
D03*
X37400Y55117D02*
D03*
Y7873D02*
D03*
X31495Y-27561D02*
D03*
X37400Y-62994D02*
D03*
Y-86616D02*
D03*
X31495Y-98427D02*
D03*
X37400Y-110238D02*
D03*
Y-133860D02*
D03*
X31495Y-145671D02*
D03*
X37400Y-157482D02*
D03*
X31495Y-169293D02*
D03*
Y-192915D02*
D03*
X19683Y185038D02*
D03*
X25589Y125983D02*
D03*
Y78739D02*
D03*
X19683Y66928D02*
D03*
X25589Y55117D02*
D03*
X19683Y43306D02*
D03*
Y19683D02*
D03*
X25589Y7873D02*
D03*
Y-15750D02*
D03*
X19683Y-27561D02*
D03*
X25589Y-39372D02*
D03*
Y-62994D02*
D03*
Y-86616D02*
D03*
Y-110238D02*
D03*
Y-181104D02*
D03*
X19683Y-192915D02*
D03*
X7873Y185038D02*
D03*
X13778Y149605D02*
D03*
X7873Y137794D02*
D03*
X13778Y125983D02*
D03*
X7873Y114172D02*
D03*
X13778Y102361D02*
D03*
Y78739D02*
D03*
X7873Y43306D02*
D03*
Y19683D02*
D03*
Y-145671D02*
D03*
X13778Y-181104D02*
D03*
X7873Y-192915D02*
D03*
X-3938Y185038D02*
D03*
X1967Y173227D02*
D03*
X-3938Y114172D02*
D03*
X1967Y102361D02*
D03*
X-3938Y66928D02*
D03*
Y43306D02*
D03*
Y19683D02*
D03*
X1967Y7873D02*
D03*
Y-39372D02*
D03*
Y-62994D02*
D03*
Y-86616D02*
D03*
Y-110238D02*
D03*
X-3938Y-122049D02*
D03*
Y-145671D02*
D03*
X1967Y-181104D02*
D03*
X-3938Y-192915D02*
D03*
X-15750Y185038D02*
D03*
Y137794D02*
D03*
X-9844Y125983D02*
D03*
X-15750Y114172D02*
D03*
X-9844Y102361D02*
D03*
X-15750Y66928D02*
D03*
Y43306D02*
D03*
X-9844Y31495D02*
D03*
Y7873D02*
D03*
X-15750Y-27561D02*
D03*
X-9844Y-39372D02*
D03*
X-15750Y-51183D02*
D03*
X-9844Y-62994D02*
D03*
X-15750Y-74805D02*
D03*
X-9844Y-86616D02*
D03*
X-15750Y-98427D02*
D03*
X-9844Y-110238D02*
D03*
X-15750Y-145671D02*
D03*
X-9844Y-157482D02*
D03*
Y-181104D02*
D03*
X-15750Y-192915D02*
D03*
X-21655Y173227D02*
D03*
X-27561Y161416D02*
D03*
Y137794D02*
D03*
X-21655Y125983D02*
D03*
X-27561Y114172D02*
D03*
X-21655Y102361D02*
D03*
X-27561Y66928D02*
D03*
Y43306D02*
D03*
X-21655Y31495D02*
D03*
Y7873D02*
D03*
X-27561Y-27561D02*
D03*
Y-51183D02*
D03*
X-21655Y-86616D02*
D03*
Y-110238D02*
D03*
X-27561Y-145671D02*
D03*
Y-169293D02*
D03*
Y-192915D02*
D03*
X-39372Y185038D02*
D03*
X-33466Y173227D02*
D03*
X-39372Y161416D02*
D03*
X-33466Y149605D02*
D03*
X-39372Y137794D02*
D03*
X-33466Y125983D02*
D03*
X-39372Y114172D02*
D03*
X-33466Y102361D02*
D03*
X-39372Y66928D02*
D03*
Y43306D02*
D03*
X-33466Y31495D02*
D03*
Y7873D02*
D03*
X-39372Y-27561D02*
D03*
X-33466Y-39372D02*
D03*
X-39372Y-51183D02*
D03*
X-33466Y-62994D02*
D03*
X-39372Y-74805D02*
D03*
X-33466Y-86616D02*
D03*
X-39372Y-98427D02*
D03*
X-33466Y-110238D02*
D03*
X-39372Y-122049D02*
D03*
X-33466Y-133860D02*
D03*
X-39372Y-145671D02*
D03*
Y-169293D02*
D03*
X-33466Y-181104D02*
D03*
X-39372Y-192915D02*
D03*
X-51183Y185038D02*
D03*
X-45277Y173227D02*
D03*
X-51183Y161416D02*
D03*
X-45277Y149605D02*
D03*
X-51183Y137794D02*
D03*
X-45277Y125983D02*
D03*
X-51183Y114172D02*
D03*
X-45277Y102361D02*
D03*
X-51183Y66928D02*
D03*
Y43306D02*
D03*
X-45277Y31495D02*
D03*
Y7873D02*
D03*
X-51183Y-51183D02*
D03*
Y-74805D02*
D03*
X-45277Y-110238D02*
D03*
Y-133860D02*
D03*
X-51183Y-145671D02*
D03*
Y-169293D02*
D03*
X-45277Y-181104D02*
D03*
X-51183Y-192915D02*
D03*
X-62994Y185038D02*
D03*
X-57088Y173227D02*
D03*
X-62994Y161416D02*
D03*
X-57088Y149605D02*
D03*
X-62994Y137794D02*
D03*
X-57088Y125983D02*
D03*
X-62994Y114172D02*
D03*
X-57088Y102361D02*
D03*
Y78739D02*
D03*
X-62994Y66928D02*
D03*
Y43306D02*
D03*
X-57088Y31495D02*
D03*
Y7873D02*
D03*
X-62994Y-3938D02*
D03*
Y-27561D02*
D03*
X-57088Y-39372D02*
D03*
X-62994Y-51183D02*
D03*
X-57088Y-62994D02*
D03*
X-62994Y-74805D02*
D03*
X-57088Y-86616D02*
D03*
X-62994Y-98427D02*
D03*
X-57088Y-110238D02*
D03*
X-62994Y-122049D02*
D03*
X-57088Y-133860D02*
D03*
X-62994Y-145671D02*
D03*
X-57088Y-157482D02*
D03*
X-62994Y-169293D02*
D03*
Y-192915D02*
D03*
X-74805Y185038D02*
D03*
X-68899Y173227D02*
D03*
X-74805Y161416D02*
D03*
X-68899Y149605D02*
D03*
Y125983D02*
D03*
X-74805Y114172D02*
D03*
X-68899Y78739D02*
D03*
X-74805Y66928D02*
D03*
Y43306D02*
D03*
X-68899Y31495D02*
D03*
Y-15750D02*
D03*
X-74805Y-27561D02*
D03*
X-68899Y-39372D02*
D03*
Y-62994D02*
D03*
X-74805Y-74805D02*
D03*
Y-98427D02*
D03*
Y-122049D02*
D03*
Y-145671D02*
D03*
X-68899Y-157482D02*
D03*
X-74805Y-169293D02*
D03*
Y-192915D02*
D03*
X-86616Y185038D02*
D03*
X-80710Y173227D02*
D03*
X-86616Y161416D02*
D03*
X-80710Y149605D02*
D03*
Y125983D02*
D03*
Y102361D02*
D03*
Y78739D02*
D03*
Y55117D02*
D03*
X-86616Y-3938D02*
D03*
X-80710Y-15750D02*
D03*
X-86616Y-27561D02*
D03*
X-80710Y-39372D02*
D03*
Y-62994D02*
D03*
X-86616Y-74805D02*
D03*
X-80710Y-86616D02*
D03*
Y-110238D02*
D03*
X-86616Y-122049D02*
D03*
Y-145671D02*
D03*
Y-169293D02*
D03*
X-80710Y-181104D02*
D03*
X-86616Y-192915D02*
D03*
X-98427Y185038D02*
D03*
X-92521Y173227D02*
D03*
X-98427Y161416D02*
D03*
X-92521Y149605D02*
D03*
Y125983D02*
D03*
Y102361D02*
D03*
Y78739D02*
D03*
X-98427Y66928D02*
D03*
X-92521Y55117D02*
D03*
X-98427Y43306D02*
D03*
Y-3938D02*
D03*
X-92521Y-15750D02*
D03*
X-98427Y-27561D02*
D03*
X-92521Y-39372D02*
D03*
X-98427Y-74805D02*
D03*
X-92521Y-86616D02*
D03*
Y-110238D02*
D03*
X-98427Y-122049D02*
D03*
Y-145671D02*
D03*
X-92521Y-157482D02*
D03*
X-98427Y-169293D02*
D03*
X-92521Y-181104D02*
D03*
X-98427Y-192915D02*
D03*
X-110238Y185038D02*
D03*
X-104332Y173227D02*
D03*
X-110238Y161416D02*
D03*
X-104332Y149605D02*
D03*
X-110238Y137794D02*
D03*
X-104332Y125983D02*
D03*
X-110238Y114172D02*
D03*
X-104332Y102361D02*
D03*
X-110238Y90550D02*
D03*
Y66928D02*
D03*
X-104332Y55117D02*
D03*
X-110238Y43306D02*
D03*
X-104332Y31495D02*
D03*
X-110238Y19683D02*
D03*
X-104332Y7873D02*
D03*
X-110238Y-3938D02*
D03*
X-104332Y-15750D02*
D03*
X-110238Y-27561D02*
D03*
X-104332Y-39372D02*
D03*
X-110238Y-51183D02*
D03*
X-104332Y-62994D02*
D03*
X-110238Y-74805D02*
D03*
X-104332Y-86616D02*
D03*
Y-110238D02*
D03*
X-110238Y-122049D02*
D03*
Y-145671D02*
D03*
X-104332Y-157482D02*
D03*
X-110238Y-169293D02*
D03*
X-104332Y-181104D02*
D03*
X-110238Y-192915D02*
D03*
X-116143Y173227D02*
D03*
X-122049Y161416D02*
D03*
X-116143Y149605D02*
D03*
X-122049Y137794D02*
D03*
X-116143Y125983D02*
D03*
X-122049Y114172D02*
D03*
X-116143Y102361D02*
D03*
X-122049Y90550D02*
D03*
X-116143Y78739D02*
D03*
X-122049Y66928D02*
D03*
X-116143Y55117D02*
D03*
X-122049Y43306D02*
D03*
X-116143Y31495D02*
D03*
X-122049Y19683D02*
D03*
X-116143Y7873D02*
D03*
X-122049Y-3938D02*
D03*
X-116143Y-15750D02*
D03*
X-122049Y-27561D02*
D03*
X-116143Y-39372D02*
D03*
X-122049Y-51183D02*
D03*
X-116143Y-62994D02*
D03*
X-122049Y-74805D02*
D03*
X-116143Y-86616D02*
D03*
Y-110238D02*
D03*
X-122049Y-122049D02*
D03*
Y-145671D02*
D03*
X-116143Y-181104D02*
D03*
X-122049Y-192915D02*
D03*
X-133860Y161416D02*
D03*
X-127954Y149605D02*
D03*
Y125983D02*
D03*
Y102361D02*
D03*
Y78739D02*
D03*
X-133860Y66928D02*
D03*
X-127954Y55117D02*
D03*
Y31495D02*
D03*
X-133860Y19683D02*
D03*
X-127954Y7873D02*
D03*
Y-15750D02*
D03*
Y-39372D02*
D03*
X-133860Y-51183D02*
D03*
X-127954Y-62994D02*
D03*
Y-86616D02*
D03*
X-133860Y-98427D02*
D03*
X-127954Y-110238D02*
D03*
X-133860Y-122049D02*
D03*
Y-145671D02*
D03*
X-127954Y-157482D02*
D03*
X-133860Y-192915D02*
D03*
X94587Y95079D02*
D03*
X98425Y17520D02*
D03*
X90748Y17618D02*
D03*
X81201Y-31693D02*
D03*
X81004Y-54626D02*
D03*
X80905Y-46850D02*
D03*
X77559Y-44783D02*
D03*
X85827Y-17717D02*
D03*
X102067Y-12992D02*
D03*
X84350Y-1181D02*
D03*
X101969Y689D02*
D03*
X101378Y12992D02*
D03*
X107972Y17421D02*
D03*
X125689Y24508D02*
D03*
Y-22343D02*
D03*
Y-16486D02*
D03*
Y-10630D02*
D03*
Y-4774D02*
D03*
Y1083D02*
D03*
Y6939D02*
D03*
Y12795D02*
D03*
Y18652D02*
D03*
X111024Y-118799D02*
D03*
Y-103740D02*
D03*
X111122Y-97539D02*
D03*
X-1969Y-161024D02*
D03*
X12402Y-145374D02*
D03*
X20079Y-137303D02*
D03*
X119980Y-120472D02*
D03*
X112402Y-142126D02*
D03*
X116732Y-138287D02*
D03*
X113091Y-127559D02*
D03*
X120177Y-128445D02*
D03*
X-15846Y-164665D02*
D03*
X10827Y-160728D02*
D03*
X13484Y-157874D02*
D03*
X9449Y-163779D02*
D03*
X-9449D02*
D03*
X108760Y-4626D02*
D03*
X108858Y5906D02*
D03*
X17224Y-70965D02*
D03*
X5906Y-126476D02*
D03*
X-14075Y-124212D02*
D03*
X-81398Y87402D02*
D03*
X-81299Y94980D02*
D03*
X83858Y-12697D02*
D03*
X93307Y-31398D02*
D03*
X74016Y-120374D02*
D03*
X73917Y-127067D02*
D03*
X80118Y-11811D02*
D03*
X92126Y27362D02*
D03*
X75590Y23917D02*
D03*
X5315Y59252D02*
D03*
X100591Y-26969D02*
D03*
X87697Y-26870D02*
D03*
X73917Y-31004D02*
D03*
X73228Y-23327D02*
D03*
X95768Y-17717D02*
D03*
X79921Y-15354D02*
D03*
X105512Y-4626D02*
D03*
X94193D02*
D03*
X98130D02*
D03*
X105512Y5906D02*
D03*
X98425D02*
D03*
X94488D02*
D03*
X17224Y-67913D02*
D03*
X-18602Y-142519D02*
D03*
X-20079Y-144882D02*
D03*
X99Y-131102D02*
D03*
X99Y-127067D02*
D03*
X-5610Y-131594D02*
D03*
X-85039Y91142D02*
D03*
X-40846Y-4921D02*
D03*
X-72933Y35433D02*
D03*
M02*
