G04*
G04 #@! TF.GenerationSoftware,Altium Limited,Altium Designer,19.1.8 (144)*
G04*
G04 Layer_Color=8388736*
%FSLAX25Y25*%
%MOIN*%
G70*
G01*
G75*
G04:AMPARAMS|DCode=17|XSize=15.75mil|YSize=49.21mil|CornerRadius=3.15mil|HoleSize=0mil|Usage=FLASHONLY|Rotation=0.000|XOffset=0mil|YOffset=0mil|HoleType=Round|Shape=RoundedRectangle|*
%AMROUNDEDRECTD17*
21,1,0.01575,0.04291,0,0,0.0*
21,1,0.00945,0.04921,0,0,0.0*
1,1,0.00630,0.00472,-0.02146*
1,1,0.00630,-0.00472,-0.02146*
1,1,0.00630,-0.00472,0.02146*
1,1,0.00630,0.00472,0.02146*
%
%ADD17ROUNDEDRECTD17*%
G04:AMPARAMS|DCode=18|XSize=27.56mil|YSize=49.21mil|CornerRadius=4.33mil|HoleSize=0mil|Usage=FLASHONLY|Rotation=0.000|XOffset=0mil|YOffset=0mil|HoleType=Round|Shape=RoundedRectangle|*
%AMROUNDEDRECTD18*
21,1,0.02756,0.04055,0,0,0.0*
21,1,0.01890,0.04921,0,0,0.0*
1,1,0.00866,0.00945,-0.02028*
1,1,0.00866,-0.00945,-0.02028*
1,1,0.00866,-0.00945,0.02028*
1,1,0.00866,0.00945,0.02028*
%
%ADD18ROUNDEDRECTD18*%
G04:AMPARAMS|DCode=19|XSize=89.76mil|YSize=82.68mil|CornerRadius=17.72mil|HoleSize=0mil|Usage=FLASHONLY|Rotation=180.000|XOffset=0mil|YOffset=0mil|HoleType=Round|Shape=RoundedRectangle|*
%AMROUNDEDRECTD19*
21,1,0.08976,0.04724,0,0,180.0*
21,1,0.05433,0.08268,0,0,180.0*
1,1,0.03543,-0.02717,0.02362*
1,1,0.03543,0.02717,0.02362*
1,1,0.03543,0.02717,-0.02362*
1,1,0.03543,-0.02717,-0.02362*
%
%ADD19ROUNDEDRECTD19*%
G04:AMPARAMS|DCode=20|XSize=43.31mil|YSize=35.43mil|CornerRadius=9.84mil|HoleSize=0mil|Usage=FLASHONLY|Rotation=0.000|XOffset=0mil|YOffset=0mil|HoleType=Round|Shape=RoundedRectangle|*
%AMROUNDEDRECTD20*
21,1,0.04331,0.01575,0,0,0.0*
21,1,0.02362,0.03543,0,0,0.0*
1,1,0.01968,0.01181,-0.00787*
1,1,0.01968,-0.01181,-0.00787*
1,1,0.01968,-0.01181,0.00787*
1,1,0.01968,0.01181,0.00787*
%
%ADD20ROUNDEDRECTD20*%
G04:AMPARAMS|DCode=21|XSize=43.31mil|YSize=35.43mil|CornerRadius=9.84mil|HoleSize=0mil|Usage=FLASHONLY|Rotation=270.000|XOffset=0mil|YOffset=0mil|HoleType=Round|Shape=RoundedRectangle|*
%AMROUNDEDRECTD21*
21,1,0.04331,0.01575,0,0,270.0*
21,1,0.02362,0.03543,0,0,270.0*
1,1,0.01968,-0.00787,-0.01181*
1,1,0.01968,-0.00787,0.01181*
1,1,0.01968,0.00787,0.01181*
1,1,0.01968,0.00787,-0.01181*
%
%ADD21ROUNDEDRECTD21*%
G04:AMPARAMS|DCode=22|XSize=53.15mil|YSize=43.31mil|CornerRadius=5.91mil|HoleSize=0mil|Usage=FLASHONLY|Rotation=180.000|XOffset=0mil|YOffset=0mil|HoleType=Round|Shape=RoundedRectangle|*
%AMROUNDEDRECTD22*
21,1,0.05315,0.03150,0,0,180.0*
21,1,0.04134,0.04331,0,0,180.0*
1,1,0.01181,-0.02067,0.01575*
1,1,0.01181,0.02067,0.01575*
1,1,0.01181,0.02067,-0.01575*
1,1,0.01181,-0.02067,-0.01575*
%
%ADD22ROUNDEDRECTD22*%
G04:AMPARAMS|DCode=23|XSize=35.43mil|YSize=43.31mil|CornerRadius=9.84mil|HoleSize=0mil|Usage=FLASHONLY|Rotation=90.000|XOffset=0mil|YOffset=0mil|HoleType=Round|Shape=RoundedRectangle|*
%AMROUNDEDRECTD23*
21,1,0.03543,0.02362,0,0,90.0*
21,1,0.01575,0.04331,0,0,90.0*
1,1,0.01968,0.01181,0.00787*
1,1,0.01968,0.01181,-0.00787*
1,1,0.01968,-0.01181,-0.00787*
1,1,0.01968,-0.01181,0.00787*
%
%ADD23ROUNDEDRECTD23*%
G04:AMPARAMS|DCode=24|XSize=82.68mil|YSize=82.68mil|CornerRadius=21.65mil|HoleSize=0mil|Usage=FLASHONLY|Rotation=270.000|XOffset=0mil|YOffset=0mil|HoleType=Round|Shape=RoundedRectangle|*
%AMROUNDEDRECTD24*
21,1,0.08268,0.03937,0,0,270.0*
21,1,0.03937,0.08268,0,0,270.0*
1,1,0.04331,-0.01968,-0.01968*
1,1,0.04331,-0.01968,0.01968*
1,1,0.04331,0.01968,0.01968*
1,1,0.04331,0.01968,-0.01968*
%
%ADD24ROUNDEDRECTD24*%
%ADD25C,0.08268*%
%ADD26R,0.03937X0.07087*%
%ADD27R,0.02362X0.01968*%
G04:AMPARAMS|DCode=28|XSize=53.15mil|YSize=43.31mil|CornerRadius=5.91mil|HoleSize=0mil|Usage=FLASHONLY|Rotation=270.000|XOffset=0mil|YOffset=0mil|HoleType=Round|Shape=RoundedRectangle|*
%AMROUNDEDRECTD28*
21,1,0.05315,0.03150,0,0,270.0*
21,1,0.04134,0.04331,0,0,270.0*
1,1,0.01181,-0.01575,-0.02067*
1,1,0.01181,-0.01575,0.02067*
1,1,0.01181,0.01575,0.02067*
1,1,0.01181,0.01575,-0.02067*
%
%ADD28ROUNDEDRECTD28*%
G04:AMPARAMS|DCode=29|XSize=129.92mil|YSize=43.31mil|CornerRadius=11.81mil|HoleSize=0mil|Usage=FLASHONLY|Rotation=270.000|XOffset=0mil|YOffset=0mil|HoleType=Round|Shape=RoundedRectangle|*
%AMROUNDEDRECTD29*
21,1,0.12992,0.01968,0,0,270.0*
21,1,0.10630,0.04331,0,0,270.0*
1,1,0.02362,-0.00984,-0.05315*
1,1,0.02362,-0.00984,0.05315*
1,1,0.02362,0.00984,0.05315*
1,1,0.02362,0.00984,-0.05315*
%
%ADD29ROUNDEDRECTD29*%
%ADD30R,0.01850X0.04803*%
%ADD31R,0.04803X0.01850*%
%ADD32R,0.07559X0.05591*%
%ADD33O,0.08268X0.04331*%
%ADD34C,0.06394*%
%ADD35C,0.07480*%
G04:AMPARAMS|DCode=36|XSize=74.8mil|YSize=74.8mil|CornerRadius=19.68mil|HoleSize=0mil|Usage=FLASHONLY|Rotation=180.000|XOffset=0mil|YOffset=0mil|HoleType=Round|Shape=RoundedRectangle|*
%AMROUNDEDRECTD36*
21,1,0.07480,0.03543,0,0,180.0*
21,1,0.03543,0.07480,0,0,180.0*
1,1,0.03937,-0.01772,0.01772*
1,1,0.03937,0.01772,0.01772*
1,1,0.03937,0.01772,-0.01772*
1,1,0.03937,-0.01772,-0.01772*
%
%ADD36ROUNDEDRECTD36*%
G04:AMPARAMS|DCode=37|XSize=74.8mil|YSize=74.8mil|CornerRadius=19.68mil|HoleSize=0mil|Usage=FLASHONLY|Rotation=270.000|XOffset=0mil|YOffset=0mil|HoleType=Round|Shape=RoundedRectangle|*
%AMROUNDEDRECTD37*
21,1,0.07480,0.03543,0,0,270.0*
21,1,0.03543,0.07480,0,0,270.0*
1,1,0.03937,-0.01772,-0.01772*
1,1,0.03937,-0.01772,0.01772*
1,1,0.03937,0.01772,0.01772*
1,1,0.03937,0.01772,-0.01772*
%
%ADD37ROUNDEDRECTD37*%
%ADD38C,0.02953*%
%ADD39C,0.07874*%
%ADD40C,0.16929*%
%ADD41C,0.28740*%
%ADD42C,0.09449*%
D17*
X-984Y-168848D02*
D03*
X984D02*
D03*
X-2953D02*
D03*
X-4921D02*
D03*
X-6890D02*
D03*
X2953D02*
D03*
X4921D02*
D03*
X6890D02*
D03*
D18*
X-9449D02*
D03*
X9449D02*
D03*
X-12598D02*
D03*
X12598D02*
D03*
D19*
X-20118Y-171112D02*
D03*
Y-186663D02*
D03*
X20118Y-171112D02*
D03*
Y-186663D02*
D03*
D20*
X77461Y-41437D02*
D03*
Y-35138D02*
D03*
X-76378Y139961D02*
D03*
Y146260D02*
D03*
X69488Y-21161D02*
D03*
Y-14862D02*
D03*
X-91535Y112894D02*
D03*
Y119193D02*
D03*
X95472Y77165D02*
D03*
Y83465D02*
D03*
X102854Y77165D02*
D03*
X102854Y83465D02*
D03*
X109744Y77165D02*
D03*
Y83465D02*
D03*
X-79921Y-166535D02*
D03*
Y-160236D02*
D03*
X-91929Y67126D02*
D03*
Y73425D02*
D03*
X80709Y-160236D02*
D03*
Y-166535D02*
D03*
D21*
X16240Y-125984D02*
D03*
X9941D02*
D03*
X-11614Y-138779D02*
D03*
X-17913D02*
D03*
X9941D02*
D03*
X16240D02*
D03*
Y-132382D02*
D03*
X9941D02*
D03*
X-86811Y-33465D02*
D03*
X-80512D02*
D03*
X-86811Y35433D02*
D03*
X-80512D02*
D03*
X-2854Y-138779D02*
D03*
X3445D02*
D03*
X-100689Y-97539D02*
D03*
X-106988D02*
D03*
X-100689Y-116339D02*
D03*
X-106988D02*
D03*
X17028Y-159941D02*
D03*
X23327D02*
D03*
X-100689Y-135039D02*
D03*
X-106988D02*
D03*
X17028Y-154035D02*
D03*
X23327D02*
D03*
X-100689D02*
D03*
X-106988D02*
D03*
X-20374Y-160433D02*
D03*
X-14075D02*
D03*
D22*
X-79921Y-143701D02*
D03*
X-79921Y-152362D02*
D03*
X80709Y-143701D02*
D03*
X80709Y-152362D02*
D03*
D23*
X105218Y90648D02*
D03*
Y94979D02*
D03*
X99312Y90648D02*
D03*
X99312Y94979D02*
D03*
D24*
X-101854Y73425D02*
D03*
Y91142D02*
D03*
X-135153Y73425D02*
D03*
Y91142D02*
D03*
X-101461Y119095D02*
D03*
Y136811D02*
D03*
X-134760Y119095D02*
D03*
Y136811D02*
D03*
D25*
X12728Y174998D02*
D03*
X21653Y151575D02*
D03*
Y139764D02*
D03*
X20594Y164172D02*
D03*
X-12728Y174998D02*
D03*
X-20594Y164172D02*
D03*
X-21654Y151575D02*
D03*
Y139764D02*
D03*
X-96063Y3937D02*
D03*
Y19685D02*
D03*
Y35433D02*
D03*
Y-64960D02*
D03*
Y-49212D02*
D03*
Y-33464D02*
D03*
D26*
X99Y-129035D02*
D03*
D27*
X-3504Y-126476D02*
D03*
X-3504Y-129035D02*
D03*
X-3504Y-131594D02*
D03*
X3701Y-126476D02*
D03*
Y-129035D02*
D03*
X3701Y-131594D02*
D03*
D28*
X-124016Y-153937D02*
D03*
X-115354Y-153937D02*
D03*
X-124311Y-135138D02*
D03*
X-115650Y-135138D02*
D03*
X-124311Y-116339D02*
D03*
X-115650Y-116339D02*
D03*
X-124311Y-97539D02*
D03*
X-115650Y-97539D02*
D03*
D29*
X-18110Y-129035D02*
D03*
X-9843Y-129035D02*
D03*
D30*
X95866Y-22244D02*
D03*
X93307D02*
D03*
X90748Y-22244D02*
D03*
X88189Y-22244D02*
D03*
X85630Y-22244D02*
D03*
X83071Y-22244D02*
D03*
X80512Y-22244D02*
D03*
X116339D02*
D03*
X108661Y-22244D02*
D03*
X108661Y-15354D02*
D03*
X116339Y-15354D02*
D03*
X121457Y-22244D02*
D03*
X118897D02*
D03*
X113779Y-22244D02*
D03*
X111220Y-22244D02*
D03*
X106102Y-22244D02*
D03*
X103543Y-22244D02*
D03*
X100984D02*
D03*
X98425Y-22244D02*
D03*
X111220Y-15354D02*
D03*
X113779D02*
D03*
X83071Y22244D02*
D03*
X85630Y22244D02*
D03*
X88189Y22244D02*
D03*
X98425Y22244D02*
D03*
X95866Y22244D02*
D03*
X93307Y22244D02*
D03*
X90748Y22244D02*
D03*
X108661D02*
D03*
X106102Y22244D02*
D03*
X103543D02*
D03*
X100984Y22244D02*
D03*
X111220D02*
D03*
X113779D02*
D03*
X116339D02*
D03*
X118897D02*
D03*
X121457D02*
D03*
X80512D02*
D03*
D31*
X121457Y-7677D02*
D03*
X121457Y-12795D02*
D03*
X121457Y-15354D02*
D03*
X121457Y-17913D02*
D03*
Y-10236D02*
D03*
X75394Y5118D02*
D03*
X75394Y12795D02*
D03*
X75394Y20472D02*
D03*
Y-20472D02*
D03*
Y-17913D02*
D03*
Y-15354D02*
D03*
Y-12795D02*
D03*
X75394Y-10236D02*
D03*
X75394Y-7677D02*
D03*
Y-5118D02*
D03*
X75394Y-2559D02*
D03*
X75394Y0D02*
D03*
X75394Y2559D02*
D03*
X75394Y7677D02*
D03*
Y10236D02*
D03*
Y15354D02*
D03*
Y17913D02*
D03*
D32*
X96457Y6102D02*
D03*
X107677D02*
D03*
X96457Y-4528D02*
D03*
X107677Y-4528D02*
D03*
D33*
X114393Y-123346D02*
D03*
D34*
X117894Y-153346D02*
D03*
X107894Y-148346D02*
D03*
X117894Y-143346D02*
D03*
X107894Y-138346D02*
D03*
X117894Y-133346D02*
D03*
X107894Y-128346D02*
D03*
D35*
X-68898Y-176102D02*
D03*
X68504D02*
D03*
X-4882Y1870D02*
D03*
X-5000Y27461D02*
D03*
Y52925D02*
D03*
Y78740D02*
D03*
X-5000Y-23594D02*
D03*
X-4902Y-49325D02*
D03*
X-5000Y-74761D02*
D03*
X-4902Y-100394D02*
D03*
X133858Y-110768D02*
D03*
Y-100768D02*
D03*
Y-90768D02*
D03*
X85039Y144764D02*
D03*
X-39370Y-176102D02*
D03*
X39370D02*
D03*
X-85236Y134764D02*
D03*
D36*
X-68898Y-186102D02*
D03*
X68504D02*
D03*
X85039Y134764D02*
D03*
X-39370Y-186102D02*
D03*
X39370D02*
D03*
X-85236Y144764D02*
D03*
D37*
X5118Y1870D02*
D03*
X5000Y27461D02*
D03*
Y52925D02*
D03*
Y78740D02*
D03*
X5000Y-23594D02*
D03*
X5098Y-49325D02*
D03*
X5000Y-74761D02*
D03*
X5098Y-100394D02*
D03*
X133858Y-80768D02*
D03*
D38*
X11378Y-173081D02*
D03*
X-11378D02*
D03*
D39*
X-24803Y182283D02*
D03*
X-31496Y131102D02*
D03*
X31496D02*
D03*
X24803Y182283D02*
D03*
D40*
X-127953Y-177165D02*
D03*
X-127953Y177165D02*
D03*
X127953D02*
D03*
X127953Y-177165D02*
D03*
D41*
X-0Y157480D02*
D03*
D42*
X-135433Y0D02*
D03*
Y39370D02*
D03*
X-135433Y-68897D02*
D03*
X-135433Y-29527D02*
D03*
M02*
