M48
;Layer_Color=9474304
;FILE_FORMAT=2:5
INCH,LZ
;TYPE=PLATED
T1F00S00C0.01181
T2F00S00C0.03346
T3F00S00C0.03937
T4F00S00C0.05906
T5F00S00C0.06299
T6F00S00C0.12598
T7F00S00C0.27165
;TYPE=NON_PLATED
T8F00S00C0.02559
%
T01
X-013386Y-0192915
X-0122049
X-0110238
X-0098427
X-0086616
X-0074805
X-0062994
X-0051183
X-0039372
X-0027561
X-001575
X-0003938
X-0009844Y-0181104
X-0009449Y-0163779
X-0009844Y-0157482
X-0001969Y-0161024
X-0015846Y-0164665
X-0027561Y-0169293
X-0039372
X-0051183
X-0062994
X-0074805
X-0086616
X-0098427
X-0110238
X-0104332Y-0157482
X-0092521
X-0068899
X-0057088
X-0045277Y-0181104
X-0033466
X-008071
X-0092521
X-0104332
X-0116143
X-0127954Y-0157482
X0013484Y-0157874
X0010827Y-0160728
X0009449Y-0163779
X0013778Y-0181104
X0025589
X0031495Y-0169293
X00374Y-0157482
X0049211
X0061022
X0072833
X0084644
X0096455
X0108266
X0114172Y-0169293
X0102361
X009055
X0096455Y-0181104
X0108266
X0114172Y-0192915
X0125983
X0137794
X0143699Y-0181104
X0137794Y-0169293
X0143699Y-0157482
X0131888
X0102361Y-0192915
X009055
X0078739
X0066928
X0055117
X0043306
X0031495
X0019683
X0007873
X0001967Y-0181104
X0049211
X0061022
X0072833
X0084644
X0066928Y-0169293
X0055117
Y-0145671
X0066928
X0072833Y-013386
X0073917Y-0127067
X0074016Y-0120374
X0072833Y-0110238
X0084644
X0096455
X0102361Y-0098427
X0111122Y-0097539
X0111024Y-010374
Y-0118799
X011998Y-0120472
X0125983Y-0122049
X0120177Y-0128445
X0113091Y-0127559
X0116732Y-0138287
X0112402Y-0142126
X0102361Y-0145671
X009055
X0096455Y-013386
X0084644
X009055Y-0122049
X0102361
X0120077Y-0110238
Y-0086616
X0114172Y-0074805
X0102361
X009055
X0096455Y-0062994
X0102361Y-0051183
X009055
X0081004Y-0054626
X0080905Y-004685
X0077559Y-0044783
X0072833Y-0039372
X0073917Y-0031004
X0081201Y-0031693
X0087697Y-002687
X009055Y-0027561
X0093307Y-0031398
X0096455Y-0039372
X0108266
X0113779Y-0026772
X0121653Y-0026969
X0125689Y-0022343
Y-0016486
Y-001063
Y-0004774
X0114172Y-0003938
X010876Y-0004626
X0105512
X009813
X0094193
X009055Y-0003938
X008435Y-0001181
X0083858Y-0012697
X0080118Y-0011811
X0079921Y-0015354
X0085827Y-0017717
X0095768
X0102067Y-0012992
X0100591Y-0026969
X0073228Y-0023327
X0066928Y-0027561
X0061022Y-0039372
X0049211
X0055117Y-0051183
X0066928
X0072833Y-0062994
X0061022
X0049211
X00374
X0025589
X0017224Y-0067913
Y-0070965
X0011811Y-0061811
X0001967Y-0062994
Y-0039372
X0025589
X0031495Y-0027561
X0019683
X0025589Y-001575
X0049211
X0042028Y-0007776
X0058071Y-0008071
X0043306Y-0051183
Y-0074805
X0055117
X0066928
X0061022Y-0086616
X0049211
X00374
X0025589
X0031495Y-0098427
X0043306
X0055117
X0061022Y-0110238
Y-013386
X0049211
X00374
X0043306Y-0145671
X0031495
X0012402Y-0145374
X0007873Y-0145671
X0020079Y-0137303
X0005906Y-0126476
X0000099Y-0127067
X0000099Y-0131102
X0001967Y-0110238
X0012402Y-0110335
X0025589Y-0110238
X00374
X0001967Y-0086616
X0084644
X0096455
X009055Y-0098427
X0143699Y-0086616
X0137794Y-0074805
X0131888Y-0062994
Y-013386
X0143699
X0137794Y-0145671
X0125983
X-0003938
X-001575
X-0020079Y-0144882
X-0018602Y-0142519
X-0027561Y-0145671
X-0039372
X-0051183
X-0062994
X-0074805
X-0086616
X-0098427
X-0110238
X-0122049
X-013386
Y-0122049
X-0122049
X-0110238
X-0098427
X-0086616
X-0074805
X-0062994
X-0057088Y-0110238
X-0045277
X-0033466
X-0021655
X-0009844
X-0003938Y-0122049
X-000561Y-0131594
X-0014075Y-0124212
X-001575Y-0098427
X-0009844Y-0086616
X-0021655
X-0033466
X-0039372Y-0074805
X-0051183
X-0062994
X-0074805
X-0086616
X-0098427
X-0110238
X-0122049
X-0116143Y-0062994
X-0104332
X-0110238Y-0051183
X-0122049
X-013386
X-0127954Y-0039372
X-0116143
X-0104332
X-0092521
X-008071
X-0068899
X-0057088
X-0051183Y-0051183
X-0039372
X-0027561
X-001575
X-0009844Y-0039372
X-001575Y-0027561
X-0027561
X-0039372
X-0033466Y-0039372
Y-0062994
X-0009844
X-001575Y-0074805
X-0039372Y-0098427
Y-0122049
X-0033466Y-013386
X-0045277
X-0057088
X-0062994Y-0098427
X-0074805
X-008071Y-0086616
X-0092521
X-0104332
X-0116143
X-0127954
X-013386Y-0098427
X-0127954Y-0110238
X-0116143
X-0104332
X-0092521
X-008071
X-0057088Y-0086616
Y-0062994
X-0068899
X-008071
X-0062994Y-0051183
Y-0027561
X-0074805
X-0086616
X-0098427
X-0110238
X-0122049
X-0116143Y-001575
X-0104332
X-0092521
X-008071
X-0068899
X-0062994Y-0003938
X-0040846Y-0004921
X-0086616Y-0003938
X-0098427
X-0110238
X-0122049
X-0127954Y-001575
Y-0062994
Y0007873
X-0116143
X-0104332
X-0110238Y0019683
X-0122049
X-013386
X-0127954Y0031495
X-0116143
X-0104332
X-0098427Y0043306
X-0110238
X-0122049
X-0116143Y0055117
X-0104332
X-0092521
X-008071
X-0074805Y0066928
X-0062994
X-0051183
X-0039372
X-0027561
X-001575
X-0003938
Y0043306
X-001575
X-0027561
X-0039372
X-0051183
X-0062994
X-0074805
X-0072933Y0035433
X-0068899Y0031495
X-0057088
X-0045277
X-0033466
X-0021655
X-0009844
X-0003938Y0019683
X-0009844Y0007873
X-0021655
X-0033466
X-0045277
X-0057088
Y0078739
X-0068899
X-008071
X-0081398Y0087402
X-0085039Y0091142
X-0081299Y009498
X-008071Y0102361
X-0092521
X-0104332
X-0116143
X-0127954
X-0122049Y0114172
X-0110238
X-0104332Y0125983
X-0092521
X-008071
X-0068899
X-0057088
X-0045277
X-0033466
X-0021655
X-0009844
X-0003938Y0114172
X-001575
X-0027561
X-0039372
X-0051183
X-0062994
X-0074805
X-0057088Y0102361
X-0045277
X-0033466
X-0021655
X-0009844
X-001575Y0137794
X-0027561
X-0039372
X-0051183
X-0062994
X-0057088Y0149605
X-0045277
X-0033466
X-0068899
X-008071
X-0092521
X-0104332
X-0116143
X-0127954
X-0122049Y0137794
X-0110238
X-0116143Y0125983
X-0127954
X-0122049Y009055
X-0110238
X-0116143Y0078739
X-0127954
X-0122049Y0066928
X-0110238
X-0098427
X-0092521Y0078739
X-013386Y0066928
X-0127954Y0055117
X0005315Y0059252
X0007873Y0043306
X0019683
X0025589Y0055117
X00374
X0049211
X0061022
X0055117Y0066928
X0043306
X0031495
X0019683
X0025589Y0078739
X00374
X0061022
X0084644
X009055Y0066928
X0096455Y0055117
X0108266
X0120077
X0125983Y0066928
X0137794
X0143699Y0078739
X0131888
X0120077
X0125983Y009055
X0137794
X0143699Y0102361
X0131888
X0120077
X0108266
X0096455
X0094587Y0095079
X0084644Y0102361
X009055Y0114172
X0102361
X0114172
X0125983
X0137794
X0143699Y0125983
X0131888
X0120077
X0108266
X0096455
X0084644
X0072833
X0067913Y0120866
X0055117Y0114172
X0043306
X0031495
X00374Y0125983
X0049211
X0043306Y0137794
X0031495
X0025589Y0125983
X0013778
X0007873Y0137794
X0013778Y0149605
X0049211
X0061022
X0072833
X0078739Y0137794
X0102361
X0114172
X0125983
X0137794
X0143699Y0149605
X0131888
X0120077
X0108266
X0096455
X0114172Y009055
Y0066928
Y0043306
X0102361
X0108266Y0031495
X0120077
X0125689Y0024508
Y0018652
Y0012795
Y0006939
Y0001083
X0120077Y0007873
X0108858Y0005906
X0105512
X0098425
X0094488
X0084644Y0007873
X0070571Y0007185
X0062992Y0000295
X0049211Y0007873
X00374
X0025589
X0019683Y0019683
X0007873
X0001967Y0007873
X0043306Y0043306
X0055117
X007559Y0023917
X0092126Y0027362
X0096455Y0031495
X0098425Y001752
X0101378Y0012992
X0107972Y0017421
X0090748Y0017618
X0101969Y0000689
X0083268Y005502
X0061022Y0102361
X0049211
X00374
X0013778
X0001967
X0007873Y0114172
X0013778Y0078739
X0001967Y0173227
X0007873Y0185038
X0019683
X0031495
X0043306
X0055117
X0066928
X0078739
X009055
X0102361
X0114172
X0108266Y0173227
X0096455
X0084644
X0072833
X0061022
X0049211
X00374
X0066928Y0161416
X0078739
X009055
X0102361
X0114172
X0125983
X0137794
X0143699Y0173227
X0137794Y0185038
X-0003938
X-001575
X-0021655Y0173227
X-0033466
X-0045277
X-0057088
X-0068899
X-008071
X-0092521
X-0104332
X-0116143
X-0110238Y0185038
X-0098427
X-0086616
X-0074805
X-0062994
X-0051183
X-0039372
Y0161416
X-0027561
X-0051183
X-0062994
X-0074805
X-0086616
X-0098427
X-0110238
X-0122049
X-013386
T02
X0107894Y-0148346
Y-0138346
Y-0128346
X0117894Y-0133346
X0117894Y-0143346
Y-0153346
T03
X-0068898Y-0186102
Y-0176102
X-003937
Y-0186102
X003937
Y-0176102
X0068504
Y-0186102
X0133858Y-0110768
Y-0100768
Y-0090768
Y-0080768
X0005Y-0074761
X0005098Y-0049325
X0005Y-0023594
X0005098Y-0100394
X-0004902
X-0005Y-0074761
X-0004902Y-0049325
X-0005Y-0023594
X-0096063Y-0033464
Y-0049212
Y-006496
Y0003937
Y0019685
Y0035433
X-0005Y0027461
Y0052925
Y007874
X-0004882Y000187
X-0085236Y0134764
Y0144764
X0005Y007874
Y0052925
Y0027461
X0005118Y000187
X0085039Y0134764
Y0144764
T04
X-0135433Y-0068897
X-0135433Y-0029527
Y0
Y003937
T05
X-0031496Y0131102
X0031496
X0024803Y0182283
X-0024803
T06
X-0127953Y-0177165
X0127953
X0127953Y0177165
X-0127953
T07
X-0Y015748
T08
X-0011378Y-0173081
X0011378
M30
