G04*
G04 #@! TF.GenerationSoftware,Altium Limited,Altium Designer,19.1.8 (144)*
G04*
G04 Layer_Color=16711935*
%FSLAX25Y25*%
%MOIN*%
G70*
G01*
G75*
%ADD25C,0.08268*%
%ADD33O,0.08268X0.04331*%
%ADD34C,0.06394*%
%ADD35C,0.07480*%
G04:AMPARAMS|DCode=36|XSize=74.8mil|YSize=74.8mil|CornerRadius=19.68mil|HoleSize=0mil|Usage=FLASHONLY|Rotation=180.000|XOffset=0mil|YOffset=0mil|HoleType=Round|Shape=RoundedRectangle|*
%AMROUNDEDRECTD36*
21,1,0.07480,0.03543,0,0,180.0*
21,1,0.03543,0.07480,0,0,180.0*
1,1,0.03937,-0.01772,0.01772*
1,1,0.03937,0.01772,0.01772*
1,1,0.03937,0.01772,-0.01772*
1,1,0.03937,-0.01772,-0.01772*
%
%ADD36ROUNDEDRECTD36*%
G04:AMPARAMS|DCode=37|XSize=74.8mil|YSize=74.8mil|CornerRadius=19.68mil|HoleSize=0mil|Usage=FLASHONLY|Rotation=270.000|XOffset=0mil|YOffset=0mil|HoleType=Round|Shape=RoundedRectangle|*
%AMROUNDEDRECTD37*
21,1,0.07480,0.03543,0,0,270.0*
21,1,0.03543,0.07480,0,0,270.0*
1,1,0.03937,-0.01772,-0.01772*
1,1,0.03937,-0.01772,0.01772*
1,1,0.03937,0.01772,0.01772*
1,1,0.03937,0.01772,-0.01772*
%
%ADD37ROUNDEDRECTD37*%
%ADD38C,0.02953*%
%ADD39C,0.07874*%
%ADD40C,0.16929*%
%ADD41C,0.28740*%
%ADD42C,0.09449*%
D25*
X-96063Y3937D02*
D03*
Y19685D02*
D03*
Y35433D02*
D03*
Y-64960D02*
D03*
Y-49212D02*
D03*
Y-33464D02*
D03*
D33*
X114393Y-123346D02*
D03*
D34*
X117894Y-153346D02*
D03*
X107894Y-148346D02*
D03*
X117894Y-143346D02*
D03*
X107894Y-138346D02*
D03*
X117894Y-133346D02*
D03*
X107894Y-128346D02*
D03*
D35*
X-68898Y-176102D02*
D03*
X68504D02*
D03*
X-4882Y1870D02*
D03*
X-5000Y27461D02*
D03*
Y52925D02*
D03*
Y78740D02*
D03*
X-5000Y-23594D02*
D03*
X-4902Y-49325D02*
D03*
X-5000Y-74761D02*
D03*
X-4902Y-100394D02*
D03*
X133858Y-110768D02*
D03*
Y-100768D02*
D03*
Y-90768D02*
D03*
X85039Y144764D02*
D03*
X-39370Y-176102D02*
D03*
X39370D02*
D03*
X-85236Y134764D02*
D03*
D36*
X-68898Y-186102D02*
D03*
X68504D02*
D03*
X85039Y134764D02*
D03*
X-39370Y-186102D02*
D03*
X39370D02*
D03*
X-85236Y144764D02*
D03*
D37*
X5118Y1870D02*
D03*
X5000Y27461D02*
D03*
Y52925D02*
D03*
Y78740D02*
D03*
X5000Y-23594D02*
D03*
X5098Y-49325D02*
D03*
X5000Y-74761D02*
D03*
X5098Y-100394D02*
D03*
X133858Y-80768D02*
D03*
D38*
X11378Y-173081D02*
D03*
X-11378D02*
D03*
D39*
X-24803Y182283D02*
D03*
X-31496Y131102D02*
D03*
X31496D02*
D03*
X24803Y182283D02*
D03*
D40*
X-127953Y-177165D02*
D03*
X-127953Y177165D02*
D03*
X127953D02*
D03*
X127953Y-177165D02*
D03*
D41*
X-0Y157480D02*
D03*
D42*
X-135433Y0D02*
D03*
Y39370D02*
D03*
X-135433Y-68897D02*
D03*
X-135433Y-29527D02*
D03*
M02*
